<?xml version="1.0" encoding="UTF-8" standalone="no"?>
<!DOCTYPE svg PUBLIC "-//W3C//DTD SVG 1.1//EN" "http://www.w3.org/Graphics/SVG/1.1/DTD/svg11.dtd">
<svg width="100%" height="100%" viewBox="0 0 378 378" version="1.1" xmlns="http://www.w3.org/2000/svg" xmlns:xlink="http://www.w3.org/1999/xlink" xml:space="preserve" xmlns:serif="http://www.serif.com/" style="fill-rule:evenodd;clip-rule:evenodd;stroke-linecap:round;stroke-linejoin:round;stroke-miterlimit:1.5;">
    <g transform="matrix(1,0,0,1,-6.14307,-18.2086)">
        <g transform="matrix(1.01002,0,0,1.01002,-3.51983,-5.62201)">
            <g id="Layer3">
                <rect x="20.953" y="34.98" width="350.492" height="350.492" style="fill:white;stroke:white;stroke-width:22.77px;"/>
            </g>
        </g>
        <g transform="matrix(-0.137741,0.0859222,0.0859222,0.137741,303.917,-79.1145)">
            <path d="M882.894,989.225L781.47,887.8C1024.74,148.03 1650.28,263.06 1676.95,268.45C1683.95,269.8 1690.42,265.76 1692.3,259.02C1694.19,252.55 1690.96,245.55 1684.5,243.12C945.26,-47.29 596.12,537.04 539.01,645.34L468.42,574.76C463.3,569.64 454.68,569.64 449.56,574.76L361.2,663.39C358.51,665.82 357.16,669.32 357.16,672.82C357.16,676.32 358.5,679.55 361.2,682.25L881.365,1202.41C865.492,1126.12 867.105,1053.91 882.894,989.225Z" style="fill:rgb(3,4,4);"/>
        </g>
        <g transform="matrix(0.574477,0,0,0.574477,-406.952,-242.219)">
            <g>
                <g id="Layer2" transform="matrix(1.64424,0,0,1.64424,686.173,461.079)">
                    <path d="M201.72,357.216C188.152,353.719 180.652,345.862 174.083,338.977C170.948,335.687 168.107,332.713 165.662,331.636C162.67,330.329 156.984,330.645 151.058,330.973C139.761,331.606 127.841,332.269 118.224,324.188C107.087,314.837 104.426,303.046 101.694,290.94C98.712,277.73 95.615,264.01 75.437,257.373C70.655,255.818 68.039,250.681 69.594,245.899C70.619,242.744 73.204,240.532 76.217,239.838C107.191,231.126 126.112,219.47 139.134,206.011C152.177,192.53 159.771,176.595 167.672,159.969C178.24,137.724 193.394,123.355 209.894,116.159C222.24,110.774 235.273,109.417 247.71,111.786C260.117,114.149 271.886,120.197 281.732,129.627C295.653,142.958 305.719,163.082 308.115,189.048C310.232,212.021 307.75,237.956 301.462,262.389C295.258,286.462 285.32,309.229 272.372,326.486C258.67,344.755 241.513,357.052 221.577,358.895C215.173,359.485 208.544,358.974 201.72,357.216Z"/>
                </g>
                <path d="M1064.1,749.426C1074.94,749.426 1083.73,758.217 1083.73,769.059C1083.73,779.902 1074.94,788.693 1064.1,788.693C1053.25,788.693 1044.46,779.902 1044.46,769.059C1044.46,758.217 1053.25,749.426 1064.1,749.426Z" style="fill:white;"/>
                <path d="M1120.96,749.426C1131.8,749.426 1140.59,758.217 1140.59,769.059C1140.59,779.902 1131.8,788.693 1120.96,788.693C1110.12,788.693 1101.32,779.902 1101.32,769.059C1101.32,758.217 1110.12,749.426 1120.96,749.426Z" style="fill:white;"/>
            </g>
        </g>
    </g>
</svg>
