<?xml version="1.0" encoding="UTF-8" standalone="no"?>
<!DOCTYPE svg PUBLIC "-//W3C//DTD SVG 1.1//EN" "http://www.w3.org/Graphics/SVG/1.1/DTD/svg11.dtd">
<svg width="100%" height="100%" viewBox="0 0 4000 4000" version="1.1" xmlns="http://www.w3.org/2000/svg" xmlns:xlink="http://www.w3.org/1999/xlink" xml:space="preserve" xmlns:serif="http://www.serif.com/" style="fill-rule:evenodd;clip-rule:evenodd;stroke-linejoin:round;stroke-miterlimit:2;">
    <g>
        <path d="M1198.33,2855.56L582.605,2855.56C570.493,2855.56 564.315,2840.89 572.874,2832.32C586.298,2818.87 604.85,2810.57 625.378,2810.57C637.576,2810.57 649.123,2813.52 659.271,2818.77C678.317,2793.03 708.911,2776.38 743.354,2776.38C745.905,2776.38 748.454,2776.48 751.003,2776.68C772.499,2708.34 836.336,2658.75 911.772,2658.75C981.607,2658.75 1041.55,2701.25 1067.04,2761.83C1077.19,2758.93 1087.94,2757.43 1098.98,2757.43C1150.91,2757.43 1195.04,2790.79 1211.16,2837.22C1214.27,2846.18 1207.81,2855.56 1198.33,2855.56Z" style="fill:white;fill-rule:nonzero;"/>
        <path d="M1054.03,1050.53L1856.12,1050.53C1871.9,1050.53 1879.95,1031.41 1868.8,1020.24C1851.31,1002.73 1827.15,991.916 1800.4,991.916C1784.52,991.916 1769.47,995.758 1756.25,1002.6C1731.44,969.058 1691.59,947.373 1646.72,947.373C1643.4,947.373 1640.08,947.503 1636.75,947.763C1608.75,858.743 1525.59,794.142 1427.32,794.142C1336.35,794.142 1258.27,849.495 1225.06,928.423C1211.84,924.645 1197.84,922.691 1183.45,922.691C1115.81,922.691 1058.31,966.139 1037.32,1026.63C1033.27,1038.3 1041.68,1050.53 1054.03,1050.53Z" style="fill:white;fill-rule:nonzero;"/>
        <path d="M2605.85,1776.49L3221.58,1776.49C3233.69,1776.49 3239.87,1761.82 3231.31,1753.24C3217.88,1739.8 3199.33,1731.5 3178.8,1731.5C3166.61,1731.5 3155.06,1734.45 3144.91,1739.7C3125.86,1713.95 3095.27,1697.31 3060.83,1697.31C3058.28,1697.31 3055.73,1697.41 3053.18,1697.61C3031.68,1629.27 2967.84,1579.68 2892.41,1579.68C2822.57,1579.68 2762.64,1622.17 2737.14,1682.76C2726.99,1679.86 2716.24,1678.36 2705.2,1678.36C2653.27,1678.36 2609.14,1711.71 2593.02,1758.15C2589.91,1767.11 2596.37,1776.49 2605.85,1776.49Z" style="fill:white;fill-rule:nonzero;"/>
        <path d="M1748.53,2793.57L1749.03,3282.04L1137.95,3282.67L1137.44,2794.2C1137.29,2647.52 1256.11,2528.46 1402.85,2528.31L1482.63,2528.23C1555.95,2528.15 1622.42,2557.82 1670.51,2605.86C1718.65,2653.84 1748.45,2720.21 1748.53,2793.57Z" style="fill:rgb(204,188,188);fill-rule:nonzero;"/>
        <path d="M1604.7,3149.04L1604.33,2793.73C1604.25,2711.92 1555.13,2640.55 1483.49,2609.37C1565.61,2630.46 1626.52,2705.08 1626.61,2793.7L1626.96,3136.28C1619.83,3140.99 1612.39,3145.26 1604.7,3149.04Z" style="fill:rgb(235,228,228);fill-rule:nonzero;"/>
        <path d="M1151.96,3268.63L1151.47,2794.19C1151.39,2726.99 1177.51,2663.78 1224.99,2616.21C1247.15,2594 1272.74,2576.44 1300.56,2564.03C1221.26,2610.06 1167.99,2695.91 1168.09,2794.17L1168.58,3268.61L1151.96,3268.63Z" style="fill:rgb(235,228,228);fill-rule:nonzero;"/>
        <path d="M1653.17,3115.68L1652.96,2912.1C1659.31,2919.24 1667.69,2924.42 1677.09,2926.84C1688.56,2929.79 1700.03,2932.56 1711.49,2935.15L1711.58,3025.22C1707.5,3035.23 1703.1,3045.04 1698.41,3054.65C1687.06,3077.91 1671.64,3098.55 1653.17,3115.68ZM1652.88,2838.29L1652.84,2793.67C1652.76,2720.3 1622.96,2653.94 1574.82,2605.96C1546.3,2577.46 1511.33,2555.44 1472.31,2542.26L1482.64,2542.25L1482.92,2542.25C1509.88,2542.25 1536.19,2546.46 1561.1,2554.58C1588.02,2567.58 1612.41,2585 1633.32,2605.9C1663.27,2635.75 1686.13,2672.73 1699.14,2714.07C1684.41,2754.69 1669.01,2796.06 1652.88,2838.29Z" style="fill:rgb(142,131,166);fill-rule:nonzero;"/>
        <path d="M1482.92,2542.25L1482.64,2542.25L1402.86,2542.33C1335.64,2542.4 1272.47,2568.64 1224.99,2616.21C1177.51,2663.78 1151.39,2726.99 1151.47,2794.19L1151.96,3268.63L1734.99,3268.03L1734.5,2793.59C1734.44,2726.36 1708.19,2663.22 1660.61,2615.79C1613.14,2568.36 1550.04,2542.25 1482.92,2542.25ZM1137.95,3296.69C1134.23,3296.69 1130.67,3295.22 1128.04,3292.6C1125.41,3289.97 1123.93,3286.41 1123.92,3282.69L1123.42,2794.22C1123.35,2719.53 1152.36,2649.27 1205.13,2596.4C1257.91,2543.53 1328.12,2514.37 1402.83,2514.29L1482.61,2514.2L1482.92,2514.2C1557.53,2514.2 1627.66,2543.22 1680.42,2595.94C1733.3,2648.65 1762.47,2718.83 1762.55,2793.56L1763.05,3282.03C1763.06,3289.77 1756.79,3296.05 1749.05,3296.06L1137.96,3296.69L1137.95,3296.69Z" style="fill:rgb(0,0,114);fill-rule:nonzero;"/>
        <path d="M1213.09,3293.32C1207.17,3293.32 1202.36,3288.53 1202.36,3282.6L1201.85,2794.14C1201.73,2683.19 1291.93,2592.83 1402.91,2592.71L1403.1,2592.71C1408.05,2592.71 1413.08,2592.9 1418.45,2593.3C1418.6,2593.3 1418.73,2593.31 1418.84,2593.32C1421.25,2593.48 1423.61,2593.74 1425.95,2594.01C1426.13,2594.02 1426.29,2594.03 1426.43,2594.05C1527.75,2605.79 1604.23,2691.63 1604.33,2793.73L1604.84,3282.19C1604.85,3288.12 1600.04,3292.93 1594.11,3292.93L1594.1,3292.93C1588.18,3292.93 1583.38,3288.14 1583.37,3282.21L1582.87,2793.75C1582.78,2702.66 1514.64,2626.06 1424.31,2615.42C1424.16,2615.41 1424.01,2615.39 1423.87,2615.38C1421.81,2615.14 1419.74,2614.9 1417.63,2614.75C1417.46,2614.75 1417.29,2614.74 1417.16,2614.73C1412.15,2614.36 1407.37,2614.09 1402.93,2614.18C1303.79,2614.29 1223.22,2695.01 1223.32,2794.12L1223.82,3282.58C1223.83,3288.51 1219.03,3293.32 1213.1,3293.32L1213.09,3293.32Z" style="fill:rgb(0,0,114);fill-rule:nonzero;"/>
        <path d="M1223.81,3268.56L1223.32,2794.12C1223.23,2702.58 1291.95,2626.73 1380.56,2615.59C1308.46,2642.82 1257.05,2712.59 1257.13,2794.08L1257.62,3268.52L1223.81,3268.56Z" style="fill:rgb(142,131,166);fill-rule:nonzero;"/>
        <path d="M1223.82,3282.58L1223.81,3268.56L1257.62,3268.52L1257.64,3282.55L1223.82,3282.58Z" style="fill:rgb(0,0,114);fill-rule:nonzero;"/>
        <path d="M1213.09,3282.59L1212.58,2794.13C1212.48,2689.09 1297.89,2603.56 1402.92,2603.45L1403.1,2603.45C1408.09,2603.45 1413.02,2603.66 1417.95,2604.02L1418.11,2604.02C1420.47,2604.18 1422.78,2604.45 1425.09,2604.71C1409.6,2606.55 1394.69,2610.25 1380.56,2615.59C1291.95,2626.73 1223.23,2702.58 1223.32,2794.12L1223.81,3268.56L1223.82,3282.58L1213.09,3282.59Z" style="fill:rgb(0,0,114);fill-rule:nonzero;"/>
        <path d="M1314.81,2801.49L1314.82,2817.26L1323.5,2817.25C1325.5,2817.25 1326.85,2816.69 1327.54,2815.58C1328.24,2814.47 1328.58,2813.1 1328.58,2811.45L1328.57,2807.26C1328.57,2805.62 1328.23,2804.25 1327.53,2803.14C1326.83,2802.03 1325.48,2801.48 1323.48,2801.48L1314.81,2801.49ZM1310.71,2868.02L1292.9,2868.04C1291.44,2868.04 1290.38,2867.69 1289.72,2866.99C1289.06,2866.3 1288.73,2865.17 1288.73,2863.6L1288.65,2783.78C1288.65,2782.22 1288.98,2781.09 1289.63,2780.39C1290.28,2779.69 1291.34,2779.34 1292.81,2779.34L1331.32,2779.3C1339.96,2779.29 1345.91,2781.19 1349.2,2785.01C1352.48,2788.82 1354.12,2793.77 1354.13,2799.85L1354.13,2805.51C1354.13,2808.96 1353.66,2811.9 1352.7,2814.32C1351.73,2816.75 1350.06,2818.49 1347.67,2819.57C1351.83,2820.05 1355.21,2821.86 1357.8,2824.97C1360.38,2828.09 1361.68,2832.24 1361.68,2837.41L1361.71,2863.53C1361.71,2865.09 1361.38,2866.22 1360.73,2866.92C1360.07,2867.62 1359.01,2867.97 1357.55,2867.97L1339.62,2867.99C1338.16,2867.99 1337.1,2867.64 1336.44,2866.94C1335.79,2866.25 1335.46,2865.12 1335.46,2863.56L1335.44,2844.71C1335.44,2842.9 1335.11,2841.57 1334.45,2840.7C1333.79,2839.84 1332.66,2839.42 1331.04,2839.42L1314.85,2839.43L1314.87,2863.58C1314.87,2865.14 1314.54,2866.27 1313.89,2866.97C1313.24,2867.67 1312.17,2868.02 1310.71,2868.02Z" style="fill:rgb(0,0,114);fill-rule:nonzero;"/>
        <path d="M1385.41,2867.94C1383.94,2867.94 1382.88,2867.59 1382.23,2866.9C1381.57,2866.2 1381.24,2865.07 1381.24,2863.51L1381.22,2848.85C1381.22,2847.29 1381.55,2846.16 1382.2,2845.46C1382.86,2844.76 1383.92,2844.41 1385.38,2844.41L1396.83,2844.4L1396.79,2803.01L1385.34,2803.02C1383.87,2803.02 1382.81,2802.67 1382.16,2801.97C1381.5,2801.28 1381.17,2800.15 1381.17,2798.59L1381.16,2783.68C1381.16,2782.12 1381.48,2780.99 1382.14,2780.29C1382.79,2779.59 1383.85,2779.24 1385.31,2779.24L1434.58,2779.19C1436.05,2779.19 1437.11,2779.54 1437.76,2780.23C1438.42,2780.93 1438.75,2782.06 1438.75,2783.62L1438.77,2798.53C1438.77,2800.09 1438.44,2801.22 1437.79,2801.92C1437.13,2802.62 1436.07,2802.97 1434.61,2802.97L1423.39,2802.98L1423.43,2844.37L1434.65,2844.36C1436.11,2844.36 1437.18,2844.71 1437.83,2845.4C1438.48,2846.1 1438.82,2847.23 1438.82,2848.79L1438.83,2863.45C1438.83,2865.01 1438.51,2866.14 1437.85,2866.84C1437.2,2867.54 1436.14,2867.89 1434.67,2867.89L1385.41,2867.94Z" style="fill:rgb(0,0,114);fill-rule:nonzero;"/>
        <path d="M1488.22,2802.17L1488.24,2820.77L1498.65,2820.76C1500.88,2820.76 1502.35,2820.15 1503.04,2818.91C1503.73,2817.68 1504.08,2816.28 1504.08,2814.72L1504.07,2808.19C1504.07,2806.63 1503.72,2805.24 1503.03,2804.01C1502.33,2802.77 1500.87,2802.16 1498.63,2802.16L1488.22,2802.17ZM1484.36,2867.84L1466.43,2867.86C1464.96,2867.86 1463.9,2867.51 1463.25,2866.81C1462.59,2866.12 1462.26,2864.99 1462.26,2863.43L1462.18,2783.6C1462.18,2782.04 1462.5,2780.91 1463.16,2780.21C1463.81,2779.51 1464.87,2779.16 1466.34,2779.16L1501.73,2779.12C1512.21,2779.11 1519.39,2781.32 1523.25,2785.75C1527.11,2790.18 1529.04,2795.97 1529.05,2803.12L1529.06,2818.89C1529.07,2826.03 1527.15,2831.82 1523.3,2836.26C1519.45,2840.7 1512.28,2842.93 1501.79,2842.94L1488.49,2842.95L1488.51,2863.4C1488.52,2864.96 1488.19,2866.09 1487.54,2866.79C1486.88,2867.49 1485.82,2867.84 1484.36,2867.84Z" style="fill:rgb(0,0,114);fill-rule:nonzero;"/>
        <path d="M1285.85,2861.62C1284.35,2861.62 1283.34,2861.3 1282.7,2860.61C1282,2859.91 1281.67,2858.78 1281.67,2857.23L1281.59,2777.36C1281.59,2775.81 1281.91,2774.68 1282.61,2773.98C1283.25,2773.28 1284.27,2772.96 1285.77,2772.96L1324.26,2772.92L1324.32,2772.92C1332.92,2772.92 1338.86,2774.79 1342.13,2778.59C1342.86,2779.47 1343.54,2780.4 1344.07,2781.39C1342.14,2780.56 1339.87,2779.98 1337.25,2779.64C1335.47,2779.41 1333.52,2779.3 1331.41,2779.3L1331.32,2779.3L1294.41,2779.34L1292.81,2779.34C1291.36,2779.34 1290.29,2779.66 1289.64,2780.36C1289.6,2780.41 1289.56,2780.47 1289.52,2780.52C1289.2,2780.9 1288.98,2781.39 1288.83,2781.99C1288.7,2782.52 1288.63,2783.12 1288.63,2783.8L1288.71,2861.62L1285.85,2861.62Z" style="fill:rgb(142,131,166);fill-rule:nonzero;"/>
        <path d="M1288.83,2781.99C1288.98,2781.39 1289.2,2780.9 1289.52,2780.52C1289.22,2780.92 1288.98,2781.41 1288.83,2781.99ZM1344.12,2781.49C1342.18,2780.6 1339.89,2779.99 1337.25,2779.64C1339.87,2779.98 1342.14,2780.56 1344.07,2781.39C1344.09,2781.42 1344.1,2781.45 1344.12,2781.49ZM1294.41,2779.34L1331.32,2779.3L1331.39,2779.3L1331.35,2779.3L1294.41,2779.34Z" style="fill:rgb(0,0,114);fill-rule:nonzero;"/>
        <path d="M1378.34,2861.53C1376.89,2861.53 1375.82,2861.21 1375.17,2860.51C1374.53,2859.82 1374.2,2858.69 1374.2,2857.13L1374.19,2842.48C1374.19,2840.87 1374.51,2839.74 1375.15,2839.04C1375.79,2838.35 1376.87,2838.02 1378.32,2838.02L1389.8,2838.01L1389.76,2803.01L1396.79,2803.01L1396.83,2844.39L1385.41,2844.4C1383.9,2844.4 1382.83,2844.78 1382.19,2845.48C1381.97,2845.71 1381.79,2846 1381.65,2846.33L1381.64,2846.34C1381.64,2846.35 1381.63,2846.36 1381.63,2846.37C1381.63,2846.37 1381.62,2846.38 1381.62,2846.39C1381.62,2846.4 1381.62,2846.4 1381.61,2846.41C1381.35,2847.05 1381.22,2847.86 1381.22,2848.85L1381.24,2861.53L1378.34,2861.53Z" style="fill:rgb(142,131,166);fill-rule:nonzero;"/>
        <path d="M1381.24,2861.53L1381.22,2848.85C1381.22,2847.86 1381.35,2847.05 1381.61,2846.41C1381.35,2847.05 1381.22,2847.87 1381.22,2848.86L1381.24,2861.53ZM1381.62,2846.39C1381.62,2846.38 1381.63,2846.37 1381.63,2846.37C1381.63,2846.37 1381.62,2846.38 1381.62,2846.39ZM1381.64,2846.34L1381.65,2846.33L1381.64,2846.34ZM1396.83,2844.39L1396.79,2803.01L1396.8,2803.01L1396.84,2844.39L1396.83,2844.39Z" style="fill:rgb(0,0,114);fill-rule:nonzero;"/>
        <path d="M1378.27,2796.64C1376.82,2796.64 1375.75,2796.27 1375.1,2795.57C1374.46,2794.87 1374.14,2793.75 1374.13,2792.19L1374.12,2777.27C1374.12,2775.71 1374.44,2774.59 1375.08,2773.89C1375.73,2773.19 1376.8,2772.86 1378.25,2772.86L1427.52,2772.81C1429.02,2772.81 1430.04,2773.13 1430.69,2773.83C1431.38,2774.53 1431.71,2775.65 1431.71,2777.21L1431.71,2779.2L1385.31,2779.24C1385.19,2779.24 1385.06,2779.25 1384.93,2779.25L1384.91,2779.25C1383.63,2779.31 1382.7,2779.64 1382.12,2780.27C1381.87,2780.56 1381.67,2780.9 1381.52,2781.31L1381.52,2781.32L1381.51,2781.32C1381.27,2781.95 1381.16,2782.74 1381.16,2783.68L1381.16,2783.98L1381.17,2796.64L1378.27,2796.64Z" style="fill:rgb(142,131,166);fill-rule:nonzero;"/>
        <path d="M1381.17,2796.64L1381.16,2783.98L1381.17,2796.64ZM1381.16,2783.7L1381.16,2783.68C1381.16,2782.74 1381.27,2781.95 1381.51,2781.32C1381.28,2781.96 1381.16,2782.75 1381.16,2783.7ZM1381.52,2781.32L1381.52,2781.31L1381.52,2781.32ZM1384.91,2779.25L1384.92,2779.25L1384.91,2779.25ZM1384.93,2779.25C1385.06,2779.25 1385.19,2779.24 1385.31,2779.24L1431.71,2779.2L1385.34,2779.24C1385.2,2779.24 1385.07,2779.25 1384.93,2779.25Z" style="fill:rgb(0,0,114);fill-rule:nonzero;"/>
        <path d="M1459.34,2861.44C1457.9,2861.44 1456.83,2861.12 1456.19,2860.43C1455.54,2859.73 1455.22,2858.6 1455.22,2857.05L1455.14,2777.19C1455.14,2775.63 1455.46,2774.5 1456.1,2773.8C1456.74,2773.1 1457.82,2772.78 1459.27,2772.78L1494.69,2772.74L1494.76,2772.74C1505.19,2772.74 1512.36,2774.94 1516.22,2779.38C1516.95,2780.21 1517.58,2781.05 1518.11,2781.98C1514.13,2780.09 1508.75,2779.14 1501.97,2779.12L1501.73,2779.12L1496.42,2779.13L1466.34,2779.16L1466.05,2779.16C1464.71,2779.21 1463.79,2779.53 1463.14,2780.18C1462.49,2780.93 1462.17,2782.06 1462.18,2783.62L1462.26,2861.44L1459.34,2861.44Z" style="fill:rgb(142,131,166);fill-rule:nonzero;"/>
        <path d="M1518.15,2782.06C1514.17,2780.1 1508.78,2779.14 1501.97,2779.12C1508.75,2779.14 1514.13,2780.09 1518.11,2781.98C1518.12,2782.01 1518.14,2782.03 1518.15,2782.06ZM1466.05,2779.16L1466.34,2779.16L1496.42,2779.13L1466.36,2779.16L1466.05,2779.16ZM1501.96,2779.12L1501.77,2779.12L1501.96,2779.12Z" style="fill:rgb(0,0,114);fill-rule:nonzero;"/>
        <path d="M1363.17,2830.36C1361.99,2828.91 1360.59,2827.73 1359.09,2826.88C1360.81,2829.72 1361.67,2833.21 1361.68,2837.39L1361.7,2863.53C1361.71,2865.09 1361.38,2866.22 1360.74,2866.91C1360.1,2867.61 1359.02,2867.99 1357.58,2867.99L1340.83,2868.01L1340.83,2868.92C1340.83,2870.48 1341.16,2871.6 1341.8,2872.3C1342.45,2873 1343.52,2873.37 1345.02,2873.37L1362.95,2873.35C1364.4,2873.35 1365.47,2872.97 1366.11,2872.28C1366.76,2871.58 1367.08,2870.45 1367.08,2868.89L1367.05,2842.76C1367.04,2837.6 1365.75,2833.47 1363.17,2830.36ZM1354.54,2790.38C1353.63,2789.31 1352.45,2788.35 1351.05,2787.6C1353.09,2790.98 1354.12,2795.05 1354.12,2799.83L1354.13,2805.52C1354.13,2808.96 1353.65,2811.91 1352.69,2814.32C1351.73,2816.74 1350.06,2818.51 1347.65,2819.59C1350.82,2819.96 1353.55,2821.09 1355.81,2823.02C1356.78,2822.16 1357.53,2821.03 1358.06,2819.69C1359.03,2817.27 1359.51,2814.32 1359.5,2810.88L1359.5,2805.19C1359.49,2799.13 1357.88,2794.19 1354.54,2790.38ZM1334.47,2840.7C1333.77,2839.84 1332.64,2839.41 1331.03,2839.41L1314.82,2839.43L1314.85,2863.58C1314.85,2865.14 1314.53,2866.26 1313.88,2866.96C1313.24,2867.66 1312.17,2868.04 1310.72,2868.04L1294.08,2868.06L1294.08,2868.97C1294.08,2870.53 1294.46,2871.65 1295.11,2872.35C1295.75,2873.05 1296.82,2873.42 1298.27,2873.42L1316.09,2873.4C1317.54,2873.4 1318.61,2873.02 1319.26,2872.32C1319.9,2871.63 1320.22,2870.5 1320.22,2868.94L1320.2,2844.79L1335.44,2844.77L1335.44,2844.72C1335.44,2842.9 1335.11,2841.55 1334.47,2840.7ZM1327.51,2803.13C1326.86,2802.01 1325.46,2801.47 1323.48,2801.47L1314.78,2801.48L1314.8,2817.26L1320.17,2817.26L1320.16,2806.84L1328.58,2806.83C1328.53,2805.33 1328.15,2804.15 1327.51,2803.13Z" style="fill:white;fill-rule:nonzero;"/>
        <path d="M1443.22,2850.78C1442.57,2850.08 1441.5,2849.71 1440,2849.71L1438.82,2849.71L1438.83,2863.45C1438.83,2865.01 1438.51,2866.14 1437.87,2866.83C1437.22,2867.53 1436.15,2867.91 1434.65,2867.91L1386.61,2867.96L1386.61,2868.87C1386.61,2870.43 1386.94,2871.56 1387.58,2872.25C1388.23,2872.95 1389.3,2873.33 1390.8,2873.32L1440.02,2873.27C1441.52,2873.27 1442.6,2872.89 1443.24,2872.2C1443.88,2871.5 1444.2,2870.37 1444.2,2868.81L1444.19,2854.16C1444.19,2852.61 1443.86,2851.48 1443.22,2850.78ZM1443.15,2785.57C1442.51,2784.87 1441.43,2784.55 1439.93,2784.55L1438.75,2784.56L1438.76,2798.51C1438.76,2800.07 1438.44,2801.19 1437.8,2801.89C1437.16,2802.59 1436.08,2802.97 1434.58,2802.97L1423.36,2802.98L1423.41,2844.36L1428.77,2844.36L1428.74,2808.34L1439.95,2808.33C1441.46,2808.33 1442.53,2807.95 1443.17,2807.25C1443.82,2806.56 1444.14,2805.43 1444.13,2803.87L1444.12,2789C1444.12,2787.45 1443.79,2786.32 1443.15,2785.57Z" style="fill:white;fill-rule:nonzero;"/>
        <path d="M1528.63,2791.12C1527.66,2789.99 1526.48,2789.03 1525.08,2788.22C1527.72,2792.25 1529.06,2797.18 1529.07,2803.14L1529.09,2818.87C1529.09,2826 1527.17,2831.8 1523.31,2836.26C1519.45,2840.72 1512.26,2842.93 1501.79,2842.94L1488.48,2842.95L1488.5,2863.4C1488.5,2864.96 1488.18,2866.09 1487.54,2866.78C1486.9,2867.48 1485.82,2867.86 1484.37,2867.86L1467.63,2867.88L1467.63,2868.79C1467.63,2870.35 1467.96,2871.47 1468.6,2872.17C1469.3,2872.87 1470.32,2873.24 1471.82,2873.24L1489.75,2873.22C1491.2,2873.22 1492.27,2872.84 1492.91,2872.15C1493.56,2871.45 1493.88,2870.32 1493.88,2868.76L1493.85,2848.31L1507.17,2848.3C1517.63,2848.29 1524.82,2846.08 1528.68,2841.62C1532.54,2837.16 1534.47,2831.37 1534.46,2824.23L1534.44,2808.5C1534.44,2801.31 1532.5,2795.57 1528.63,2791.12ZM1503.04,2804.03C1502.34,2802.79 1500.89,2802.15 1498.64,2802.15L1488.22,2802.16L1488.24,2820.79L1493.61,2820.78L1493.6,2807.52L1504.01,2807.51C1503.96,2806.22 1503.63,2805.04 1503.04,2804.03Z" style="fill:white;fill-rule:nonzero;"/>
        <path d="M2790.99,2696.31C2832.14,2614.67 2868.87,2322.8 2823.12,2197.23L2751.78,2178.85L2587.05,2402.06L2790.99,2696.31Z" style="fill:rgb(107,88,135);fill-rule:nonzero;"/>
        <path d="M2767.31,2608.99C2752.51,2571.15 2739.71,2531.73 2729.13,2492.23C2741.51,2445.25 2759.2,2402.57 2782.09,2364.91C2789.27,2353.1 2796.9,2341.87 2804.97,2331.23C2807.86,2419.43 2797.43,2521.26 2781.66,2598.27C2776.68,2601.73 2771.9,2605.3 2767.31,2608.99ZM2716.23,2439.08C2709.41,2407.73 2704.07,2376.79 2700.32,2346.99L2768.83,2258.9C2780.14,2265.91 2791.03,2272.79 2801.5,2279.55C2801.87,2283.02 2802.21,2286.51 2802.53,2290.06C2786.34,2308.23 2771.48,2328.36 2758.12,2350.34C2741.57,2377.58 2727.59,2407.24 2716.23,2439.08Z" style="fill:rgb(75,61,129);fill-rule:nonzero;"/>
        <path d="M2689.11,2338.56L2800.92,2194.81L2693.94,2133.65C2693.94,2133.65 2655.99,2228.1 2689.11,2338.56Z" style="fill:white;fill-rule:nonzero;"/>
        <path d="M2791,2696.3C2788.09,2696.39 2785.18,2696.49 2782.32,2696.49C2583.87,2699.94 2445.83,2581.64 2341.31,2434.63C2335.88,2426.96 2330.49,2419.2 2325.2,2411.38L2241.75,2116.81C2241.75,2116.81 2298.81,2192.75 2462.13,2281.93L2709.15,2107.5C2685.91,2144.38 2677.17,2207.31 2680.57,2281.98C2680.91,2290.62 2681.49,2299.4 2682.22,2308.33C2682.46,2311.67 2682.75,2315.07 2683.04,2318.52C2688.04,2373.25 2698.81,2432.73 2714.49,2491.93C2732.54,2560.05 2757.04,2627.83 2786.78,2687.85C2788.14,2690.67 2789.6,2693.48 2791,2696.3Z" style="fill:rgb(107,88,135);fill-rule:nonzero;"/>
        <path d="M2457.37,2310.3C2441.48,2310.3 2425.56,2306.01 2411.4,2297.39C2376.25,2275.98 2347.42,2255.83 2324.15,2237.94L2319.15,2207.13C2352.89,2232.77 2397.57,2262.67 2455.4,2294.24C2457.5,2295.38 2459.81,2295.95 2462.12,2295.95C2464.96,2295.95 2467.79,2295.09 2470.2,2293.38L2630.75,2180.02C2638.28,2184 2645.69,2187.96 2652.98,2191.9L2507.98,2294.25C2492.85,2304.93 2475.13,2310.3 2457.37,2310.3Z" style="fill:rgb(196,188,207);fill-rule:nonzero;"/>
        <path d="M2774.03,2710.63C2596.87,2710.63 2446.3,2615.45 2314.23,2420.18C2313.57,2419.34 2313,2418.41 2312.52,2417.4C2309.45,2410.77 2311.94,2402.78 2318.31,2399.19C2324.67,2395.59 2332.68,2397.4 2336.77,2403.46C2463.77,2591.67 2601.5,2680.88 2768.58,2682.57C2682.83,2502.96 2645.19,2269.2 2677.97,2146.68L2470.2,2293.38C2465.84,2296.47 2460.09,2296.79 2455.4,2294.24C2291.3,2204.65 2232.96,2128.43 2230.56,2125.22C2225.91,2119.03 2227.16,2110.24 2233.36,2105.59C2239.55,2100.95 2248.32,2102.19 2252.98,2108.37C2253.9,2109.59 2309.48,2181.25 2461.19,2265.41L2701.05,2096.06C2706.51,2092.21 2713.93,2092.74 2718.79,2097.34C2723.64,2101.95 2724.56,2109.34 2720.99,2115C2662.23,2208.2 2703.08,2492.99 2803.48,2689.94C2805.66,2694.21 2805.5,2699.3 2803.07,2703.43C2800.64,2707.55 2796.27,2710.16 2791.48,2710.32C2785.64,2710.52 2779.81,2710.63 2774.03,2710.63Z" style="fill:rgb(0,0,114);fill-rule:nonzero;"/>
        <path d="M2470.71,2293.01L2408.43,2330.38C2405.86,2331.92 2402.54,2331.08 2401.01,2328.52C2399.7,2326.34 2400.11,2323.61 2401.85,2321.9L2453.52,2270.85C2459.07,2265.37 2468.01,2265.42 2473.49,2270.97C2478.97,2276.52 2478.92,2285.46 2473.37,2290.95C2472.57,2291.74 2471.63,2292.45 2470.71,2293.01Z" style="fill:rgb(0,0,114);fill-rule:nonzero;"/>
        <path d="M2685.63,2357.05C2682.62,2357.05 2679.59,2356.08 2677.03,2354.09C2670.92,2349.34 2669.82,2340.53 2674.57,2334.41L2789.85,2186.2C2794.6,2180.08 2803.41,2178.98 2809.52,2183.74C2815.64,2188.49 2816.74,2197.3 2811.98,2203.41L2696.71,2351.63C2693.95,2355.19 2689.81,2357.05 2685.63,2357.05Z" style="fill:rgb(0,0,114);fill-rule:nonzero;"/>
        <path d="M2790.98,2710.33C2788.85,2710.33 2786.7,2709.85 2784.68,2708.83C2777.76,2705.35 2774.98,2696.91 2778.47,2690C2816.64,2614.25 2854.75,2325.03 2809.94,2202.03C2807.29,2194.75 2811.04,2186.7 2818.32,2184.05C2825.57,2181.41 2833.63,2185.15 2836.29,2192.43C2882.04,2318 2847.89,2614.56 2803.51,2702.62C2801.05,2707.51 2796.11,2710.33 2790.98,2710.33Z" style="fill:rgb(0,0,114);fill-rule:nonzero;"/>
        <path d="M2575.96,3282.67L1485.99,3282.67C1459.4,3282.67 1447.61,3249.33 1468.23,3232.45C1494.48,3210.96 1530.49,3187.96 1574.88,3175.44C1634.42,3158.6 1683.91,3116.39 1710.98,3060.78C1730.2,3021.48 1744.99,2978.15 1754.21,2929.73C1746.69,2928.32 1739.22,2926.82 1731.7,2925.22L1731.6,2925.22C1714.57,2921.63 1697.54,2917.6 1680.56,2913.23C1660.38,2908.04 1649.46,2886.3 1656.93,2866.8C1749.22,2627.35 1828.31,2390.47 1884.3,2158.4C1891.09,2130.3 1844.07,2098.67 1842.72,2097.8C1919.52,2109.83 1997.3,2114.39 2074.98,2112.21C2094.83,2111.62 2114.68,2110.6 2134.52,2109.2L2267.27,2099.59C2273.92,2099.1 2280.57,2098.52 2287.17,2097.7L2318.51,2290.76L2318.51,2290.81L2322.58,2315.94L2336.85,2403.96C2352.72,2516.33 2369.55,2652.58 2382.61,2800.03C2383.72,2813.09 2386.53,2825.99 2390.9,2838.32L2436.66,2966.75C2447.77,2997.9 2465.38,3026.24 2488.28,3050.06C2502.84,3065.15 2518.71,3087.28 2526.66,3116.78C2537.29,3156.32 2559.41,3191.84 2591.78,3217.02L2597.07,3221.14C2622.88,3241.23 2608.66,3282.67 2575.96,3282.67Z" style="fill:rgb(107,88,135);fill-rule:nonzero;"/>
        <path d="M1508.89,3268.65L1486.02,3268.65C1476.73,3268.65 1473.45,3261.47 1472.66,3259.28C1471.86,3257.04 1469.82,3249.28 1477.13,3243.29C1508.98,3217.24 1543.15,3198.95 1578.71,3188.93C1641.7,3171.09 1694.51,3126.63 1723.61,3066.95C1742.01,3029.31 1755.98,2988.68 1765.22,2945.98C1775.82,2947.86 1786.43,2949.59 1797.01,2951.15C1787.77,2991.04 1774.63,3027.37 1758.29,3060.78C1731.22,3116.39 1681.72,3158.6 1622.19,3175.44C1577.79,3187.96 1541.79,3210.96 1515.54,3232.45C1503.61,3242.22 1502.53,3257.51 1508.89,3268.65ZM1715.63,2907.33C1705.12,2904.94 1694.6,2902.39 1684.08,2899.68C1678.35,2898.2 1673.69,2894.47 1670.96,2889.17C1668.2,2883.81 1667.86,2877.51 1670.04,2871.89C1771.98,2607.25 1846.53,2374.95 1897.95,2161.69C1901.14,2148.48 1899.94,2134.65 1894.76,2122.28C1902.95,2122.96 1911.17,2123.57 1919.4,2124.09C1928,2134.51 1934.43,2146.76 1931.61,2158.4C1875.61,2390.47 1796.52,2627.35 1704.29,2866.8C1698.48,2881.86 1703.67,2898.26 1715.63,2907.33Z" style="fill:rgb(196,188,207);fill-rule:nonzero;"/>
        <path d="M2007.92,2948.87C2034.76,3092.14 1787.87,3078.72 1814.83,2939.56L2007.92,2948.87Z" style="fill:white;fill-rule:nonzero;"/>
        <path d="M1953.72,2962.86C1862.97,2962.86 1770.21,2950.8 1677.09,2926.84C1663.7,2923.39 1652.38,2914.34 1646.03,2902.01C1639.61,2889.55 1638.82,2874.89 1643.86,2861.8C1745.37,2598.32 1819.56,2367.17 1870.69,2155.12C1873.06,2145.26 1871.21,2135.21 1865.47,2126.82C1859.69,2118.4 1850.94,2113.01 1840.83,2111.66C1833.15,2110.63 1827.76,2103.57 1828.79,2095.9C1829.82,2088.22 1836.9,2082.76 1844.55,2083.86C1862.37,2086.25 1878.43,2096.13 1888.6,2110.98C1898.74,2125.78 1902.15,2144.27 1897.95,2161.69C1846.53,2374.95 1771.98,2607.25 1670.04,2871.89C1667.86,2877.51 1668.2,2883.81 1670.96,2889.17C1673.69,2894.47 1678.35,2898.2 1684.08,2899.68C1797.26,2928.8 1909.8,2939.89 2018.62,2932.68C2028.99,2931.99 2037.28,2923.22 2037.5,2912.72L2045.97,2514.5C2046.14,2506.75 2052.71,2500.81 2060.29,2500.78C2068.03,2500.94 2074.18,2507.35 2074.01,2515.09L2065.54,2913.33C2065.01,2938.23 2045.21,2959.01 2020.48,2960.65C1998.37,2962.12 1976.11,2962.86 1953.72,2962.86Z" style="fill:rgb(0,0,114);fill-rule:nonzero;"/>
        <path d="M2045.97,2517.8L2067.07,2246.36C2067.29,2243.41 2069.88,2241.2 2072.84,2241.43C2075.67,2241.64 2077.82,2244.05 2077.79,2246.85L2073.99,2519.08C2073.88,2526.83 2067.51,2533.02 2059.77,2532.92C2052.02,2532.81 2045.82,2526.44 2045.93,2518.69C2045.94,2518.41 2045.95,2518.08 2045.97,2517.8Z" style="fill:rgb(0,0,114);fill-rule:nonzero;"/>
        <path d="M2396.59,2800.77C2395,2814.21 2392.74,2826.61 2390.05,2839.32C2387.34,2851.93 2384.1,2864.42 2380.36,2876.75C2376.59,2889.08 2372.08,2901.2 2367,2913.07C2361.79,2924.9 2355.67,2936.36 2348.67,2947.25C2347.07,2949.75 2343.74,2950.47 2341.25,2948.87C2338.93,2947.38 2338.14,2944.41 2339.33,2941.99L2339.41,2941.82C2344.78,2930.85 2349.27,2919.49 2352.89,2907.8C2356.38,2896.06 2359.31,2884.16 2361.54,2872.09C2363.73,2860.02 2365.43,2847.86 2366.62,2835.66C2367.78,2823.55 2368.56,2810.99 2368.58,2799.37L2368.58,2799.11C2368.59,2791.34 2374.9,2785.06 2382.66,2785.08C2390.42,2785.09 2396.7,2791.39 2396.68,2799.16C2396.68,2799.7 2396.65,2800.25 2396.59,2800.77Z" style="fill:rgb(0,0,114);fill-rule:nonzero;"/>
        <path d="M2575.98,3296.69L1486.02,3296.69C1467.94,3296.69 1452.33,3285.71 1446.26,3268.72C1440.14,3251.64 1445.29,3233.14 1459.36,3221.6C1494.23,3193.07 1531.81,3173 1571.09,3161.94C1626.39,3146.28 1672.8,3107.18 1698.41,3054.65C1717.67,3015.24 1731.81,2972.34 1740.44,2927.1C1741.9,2919.5 1749.22,2914.48 1756.84,2915.95C1764.45,2917.4 1769.44,2924.75 1767.99,2932.35C1758.89,2980.04 1743.96,3025.33 1723.61,3066.95C1694.51,3126.63 1641.7,3171.09 1578.71,3188.93C1543.15,3198.95 1508.98,3217.24 1477.13,3243.29C1469.82,3249.28 1471.86,3257.04 1472.66,3259.28C1473.45,3261.47 1476.73,3268.65 1486.02,3268.65L2575.98,3268.65C2586.68,3268.65 2592.92,3261.54 2595.21,3254.89C2597.49,3248.24 2596.92,3238.8 2588.47,3232.23L2583.16,3228.1C2549.16,3201.66 2524.94,3164.42 2513.12,3120.41C2507.08,3097.96 2495.32,3077.56 2478.19,3059.79C2453.67,3034.3 2435.26,3004.58 2423.44,2971.47L2377.72,2843.02C2372.93,2829.6 2369.87,2815.55 2368.63,2801.26C2357.56,2676.04 2341.32,2532.98 2324.08,2408.8C2323.01,2401.13 2328.37,2394.05 2336.04,2392.99C2343.69,2391.92 2350.79,2397.28 2351.85,2404.95C2369.16,2529.56 2385.46,2673.12 2396.57,2798.82C2397.6,2810.74 2400.14,2822.44 2404.13,2833.61L2449.86,2962.06C2460.33,2991.4 2476.66,3017.74 2498.39,3040.34C2518.84,3061.55 2532.91,3086.04 2540.2,3113.13C2550.43,3151.2 2571.24,3183.3 2600.37,3205.96L2605.69,3210.09C2622.25,3222.97 2628.55,3244.13 2621.73,3263.99C2614.92,3283.86 2596.96,3296.69 2575.98,3296.69Z" style="fill:rgb(0,0,114);fill-rule:nonzero;"/>
        <path d="M2336.86,2417.98C2330.1,2417.98 2324.15,2413.09 2323.03,2406.2L2273.36,2100.01C2272.12,2092.36 2277.31,2085.16 2284.95,2083.92C2292.6,2082.67 2299.8,2087.87 2301.04,2095.51L2350.72,2401.71C2351.96,2409.36 2346.76,2416.56 2339.12,2417.8C2338.36,2417.92 2337.6,2417.98 2336.86,2417.98Z" style="fill:rgb(0,0,114);fill-rule:nonzero;"/>
        <path d="M1917.88,3064.26C1891.6,3064.26 1864.79,3056.98 1843.22,3042.56C1807.99,3018.99 1792.62,2980.48 1801.07,2936.9C1802.54,2929.3 1809.91,2924.32 1817.5,2925.8C1825.1,2927.27 1830.07,2934.63 1828.6,2942.23C1820.54,2983.8 1840.58,3007.06 1858.82,3019.25C1890.77,3040.63 1939.08,3042.01 1968.8,3022.41C1991.29,3007.57 2000.06,2983.04 1994.14,2951.46C1992.71,2943.85 1997.73,2936.52 2005.34,2935.09C2012.98,2933.7 2020.28,2938.69 2021.71,2946.29C2029.75,2989.23 2016.44,3024.58 1984.24,3045.82C1965.56,3058.15 1941.94,3064.26 1917.88,3064.26Z" style="fill:rgb(0,0,114);fill-rule:nonzero;"/>
        <path d="M991.373,2279.94C983.124,2276.4 974.972,2272.76 966.87,2268.93L966.821,2268.88C772.011,2177.08 618.054,2003.08 558.812,1780.23C556.725,1772.56 554.784,1764.8 552.989,1756.99C548.864,1739.18 545.371,1721.42 542.557,1703.61C539.112,1682.12 536.686,1660.58 535.133,1639.18C532.125,1597.55 532.61,1556.21 536.493,1515.55C541.635,1460.23 552.892,1406.09 569.778,1354.07C580.791,1319.72 594.377,1286.29 610.195,1254.02C636.348,1200.55 668.807,1150.28 706.799,1104.33C720.822,1087.4 745.471,1083.81 763.763,1096.04L890.159,1180.17C911.459,1194.39 915.826,1224.04 899.233,1243.59C867.16,1281.43 838.921,1322.43 815.146,1365.91C811.458,1372.7 807.82,1379.59 804.326,1386.53C801.9,1391.33 799.522,1396.14 797.193,1400.99C787.586,1420.98 778.901,1441.41 771.138,1462.27C762.065,1486.58 754.253,1511.47 747.847,1536.75C741.54,1561.45 736.542,1586.53 732.903,1611.91C728.681,1640.88 726.207,1670.28 725.577,1699.93C724.218,1759.85 730.332,1820.89 744.549,1881.98C782.394,2044.47 871.769,2181.49 991.373,2279.94Z" style="fill:rgb(163,142,142);fill-rule:nonzero;"/>
        <path d="M712.492,1430.76L613.755,1377.7C619.467,1359.25 625.873,1341.07 632.957,1323.17L776.16,1400.1L712.492,1430.76Z" style="fill:rgb(114,99,134);fill-rule:nonzero;"/>
        <path d="M894.531,2213.31C730.545,2110.04 611.124,1944.78 566.669,1753.81C535.729,1620.9 541.735,1485.81 581.853,1360.56L613.755,1377.7C602.38,1414.44 593.771,1452.19 588.118,1490.66L712.492,1430.76L758.684,1455.58C748.858,1481.71 740.504,1508.36 733.708,1535.38C732.93,1538.47 732.174,1541.56 731.436,1544.65L580.354,1617.39C580.84,1639.23 582.295,1661.21 584.769,1683.28L717.598,1619.28C713.729,1648.38 711.616,1677.59 711.263,1706.82L597.628,1761.55C598.356,1764.85 599.132,1768.19 599.909,1771.54C643.1,1956.97 751.175,2110.39 894.531,2213.31ZM692.98,1203.59C682.942,1197.7 673.245,1191.94 664.096,1186.45C680.313,1161.23 698.162,1136.8 717.616,1113.27C723.298,1106.4 731.513,1102.79 739.857,1102.79C745.414,1102.79 751.03,1104.39 755.99,1107.7L761.658,1111.47C758.766,1113.55 756.092,1116.03 753.718,1118.89C731.539,1145.72 711.246,1174.03 692.98,1203.59Z" style="fill:rgb(218,210,210);fill-rule:nonzero;"/>
        <path d="M758.684,1455.58L712.492,1430.76L776.16,1400.1L780.936,1402.66C772.848,1420.01 765.418,1437.68 758.684,1455.58ZM613.755,1377.7L581.853,1360.56C587.716,1342.26 594.301,1324.18 601.612,1306.33L632.957,1323.17C625.873,1341.07 619.467,1359.25 613.755,1377.7Z" style="fill:rgb(199,193,207);fill-rule:nonzero;"/>
        <path d="M739.857,1102.79C731.513,1102.79 723.298,1106.4 717.616,1113.27C568.81,1293.2 513.793,1526.67 566.669,1753.81C612.529,1950.82 738.178,2120.47 910.221,2222.92C822.097,2128.46 760.737,2013.3 730.902,1885.15C703.737,1768.44 704.682,1650.76 733.708,1535.38C761.394,1425.31 814.933,1321.28 888.542,1234.51C893.888,1228.21 896.198,1220.21 895.041,1211.98C893.883,1203.78 889.269,1196.44 882.37,1191.85L755.99,1107.7C751.03,1104.39 745.414,1102.79 739.857,1102.79ZM991.394,2293.99C989.543,2293.99 987.668,2293.62 985.876,2292.86C877.238,2246.3 779.354,2174.29 702.811,2084.59C623.7,1991.88 567.179,1879.69 539.354,1760.17C484.479,1524.43 541.575,1282.13 696.005,1095.4C714.655,1072.85 747.126,1068.1 771.532,1084.36L897.917,1168.51C911.467,1177.53 920.539,1191.95 922.81,1208.07C925.066,1224.1 920.373,1240.35 909.929,1252.66C763.769,1424.93 707.055,1659 758.216,1878.79C794.218,2033.44 877.932,2168.42 1000.31,2269.14C1005.7,2273.57 1007,2281.29 1003.38,2287.26C1000.76,2291.55 996.159,2293.99 991.394,2293.99Z" style="fill:rgb(0,0,114);fill-rule:nonzero;"/>
        <path d="M3154.13,2328.07C3142.97,2360.92 3115.51,2404.25 3048.07,2425.36C3046.66,2425.79 3045.25,2426.18 3043.84,2426.43C3029.63,2429.39 3014.78,2425.16 3004.01,2415.17C2975.19,2388.34 2909.54,2331.81 2800.9,2262.38L2800.85,2262.38C2704.39,2200.76 2574.07,2128.99 2405.46,2058.88C2364.51,2041.85 2321.32,2024.92 2275.81,2008.23L1029.75,1540L802.336,1398.27L587.342,1282.74C561.141,1268.67 551.243,1236.02 565.216,1209.72C574.969,1191.38 593.697,1181 613.008,1181C622.518,1181 632.174,1183.52 640.957,1188.86C685.935,1216.17 753.864,1256.06 808.352,1282.36C858.523,1306.52 905.977,1336.02 950.422,1369.65L1073.62,1462.76L2317.39,1947.28L2490.9,2016.77L2544.81,2038.36L2919.29,2188.38L3127.98,2271.94C3141.9,2277.52 3151.71,2289.4 3155.1,2303.04C3155.2,2303.33 3155.25,2303.62 3155.34,2303.91C3157.14,2311.67 3156.85,2320.02 3154.13,2328.07Z" style="fill:rgb(229,160,37);fill-rule:nonzero;"/>
        <path d="M1474.76,1654.61L1422.09,1634.09C1430.84,1631.5 1439.38,1627.96 1447.62,1623.51L1471.96,1632.99C1472.42,1636.33 1472.92,1639.63 1473.48,1642.9C1474.15,1646.78 1474.57,1650.69 1474.76,1654.61ZM1270.24,1574.94L1066.34,1495.51L943.143,1402.4C898.698,1368.77 851.246,1339.27 801.076,1315.11C746.586,1288.81 678.657,1248.93 633.678,1221.61C624.897,1216.27 615.241,1213.75 605.731,1213.75C594.631,1213.75 583.704,1217.2 574.577,1223.62C575.321,1221.14 576.319,1218.69 577.58,1216.32C582.809,1206.48 591.603,1199.43 602.343,1196.48C605.892,1195.5 609.486,1195.02 613.052,1195.02C620.254,1195.02 627.339,1196.99 633.69,1200.85L633.693,1200.85C680.58,1229.32 747.884,1268.76 802.253,1294.97C850.178,1318.08 897.185,1346.96 941.965,1380.82L1065.16,1473.96C1066.19,1474.73 1067.32,1475.37 1068.53,1475.84L1253.17,1547.76C1258.38,1557.52 1264.09,1566.59 1270.24,1574.94Z" style="fill:rgb(245,217,168);fill-rule:nonzero;"/>
        <path d="M1036.01,1527.38L2280.74,1995.11C2728.55,2159.15 2954.88,2350.24 3013.58,2404.9C3021.78,2412.54 3033.43,2415.24 3043.89,2411.96C3105.81,2392.61 3130.79,2353.21 3140.85,2323.56C3146.1,2308.09 3138.15,2291.14 3122.75,2284.97L2312.18,1960.29L1068.53,1475.84C1067.32,1475.37 1066.19,1474.73 1065.16,1473.96L941.965,1380.82C897.185,1346.96 850.178,1318.08 802.253,1294.97C747.884,1268.76 680.58,1229.32 633.693,1200.85L633.69,1200.85C624.194,1195.08 613.058,1193.52 602.343,1196.48C591.603,1199.43 582.809,1206.48 577.58,1216.32C567.253,1235.74 574.616,1260 593.992,1270.41L808.986,1385.89C809.25,1386.04 809.514,1386.19 809.767,1386.35L1036.01,1527.38ZM3034.9,2441.37C3020.15,2441.37 3005.62,2435.81 2994.47,2425.42C2936.75,2371.67 2713.97,2183.67 2270.98,2021.4L1024.85,1553.14C1023.98,1552.82 1023.15,1552.41 1022.36,1551.92L795.317,1410.39L580.722,1295.11C547.782,1277.42 535.263,1236.17 552.817,1203.15C561.703,1186.43 576.654,1174.46 594.909,1169.44C613.142,1164.43 632.087,1167.07 648.246,1176.88C694.606,1205.03 761.071,1243.98 814.431,1269.7C864.025,1293.62 912.624,1323.48 958.879,1358.45L1080.52,1450.41L2322.48,1934.2L3133.18,2258.94C3162.4,2270.65 3177.44,2302.99 3167.4,2332.57C3155.26,2368.38 3125.42,2415.86 3052.26,2438.73C3046.57,2440.5 3040.72,2441.37 3034.9,2441.37Z" style="fill:rgb(0,0,114);fill-rule:nonzero;"/>
        <path d="M731.877,1281.94C734.313,1292.4 727.805,1302.86 717.339,1305.3C706.873,1307.74 696.414,1301.23 693.979,1290.76C691.542,1280.3 698.051,1269.84 708.517,1267.4C718.982,1264.96 729.44,1271.47 731.877,1281.94Z" style="fill:rgb(0,0,114);fill-rule:nonzero;"/>
        <path d="M3047.62,2375.52C3046.48,2375.52 3045.31,2375.37 3044.15,2375.06C3036.99,2373.15 3032.74,2365.8 3034.65,2358.64C3044.15,2323.08 3067.48,2298.09 3098.66,2290.07C3105.84,2288.22 3113.15,2292.54 3115,2299.72C3116.84,2306.89 3112.53,2314.21 3105.35,2316.05C3083.82,2321.6 3067.5,2339.64 3060.58,2365.56C3058.98,2371.56 3053.55,2375.52 3047.62,2375.52Z" style="fill:rgb(0,0,114);fill-rule:nonzero;"/>
        <path d="M2680.62,1628.36C2680.62,1723.17 2652.91,1816.86 2597.94,1896.05C2565.97,1942.14 2527.34,1980.52 2482.8,2011.91C2423.9,2053.5 2356.31,2080.52 2285.66,2092.99C2268.1,2096.1 2250.34,2098.28 2232.43,2099.59L2099.73,2109.2C2002.3,2116.23 1904.34,2112.88 1807.93,2097.8L1807.88,2097.75C1791.67,2095.22 1775.42,2092.36 1759.36,2089.11C1602.93,2057.86 1468.82,1995.85 1430.58,1874.5C1420.88,1843.69 1424.76,1810.16 1439.61,1781.54L1452.08,1757.47L1476.48,1710.41C1487.64,1688.96 1491.43,1664.36 1487.35,1640.54C1483.71,1619.53 1482.6,1597.98 1483.13,1575.81C1422.14,1649.8 1319.66,1642.67 1265.61,1541.31C1261.34,1533.35 1257.41,1524.81 1253.82,1515.69C1237.86,1475.32 1274.2,1434.95 1316.36,1445.14C1332.28,1448.98 1347.13,1449.17 1361,1445.82C1381.33,1440.83 1395.36,1422.19 1394.97,1401.28C1393.76,1332.19 1388.03,1248.54 1385.41,1162.51C1383.13,1088.76 1404.24,1015.78 1447.32,955.911C1498.56,884.827 1566.83,843.778 1653.97,835.676C1711.08,830.339 1768.53,841.256 1820.93,864.595C1928.21,912.241 2038.64,912.047 2151.84,871.096C2211.62,849.456 2278.38,852.95 2333.99,883.712C2380.42,909.378 2413.42,949.312 2436.03,1000.26L2546.99,1205.31C2578.05,1262.75 2604.83,1322.29 2627.1,1383.57C2641.66,1423.55 2654.32,1464.31 2665,1505.6C2675.48,1546.02 2680.62,1587.26 2680.62,1628.36Z" style="fill:rgb(107,88,135);fill-rule:nonzero;"/>
        <path d="M1268.21,1513.93C1267.75,1512.81 1267.29,1511.67 1266.84,1510.53C1261.44,1496.85 1263.9,1482.13 1273.43,1471.17C1281.1,1462.36 1291.73,1457.58 1303.12,1457.58C1306.4,1457.58 1309.75,1457.98 1313.11,1458.79C1322.58,1461.07 1331.83,1462.21 1340.78,1462.21C1348.88,1462.21 1356.75,1461.28 1364.32,1459.41C1382.06,1455.05 1396.11,1443.03 1403.44,1427.33C1403.64,1434.55 1403.8,1441.64 1403.92,1448.57C1404.3,1469.51 1390.29,1488.13 1369.95,1493.12C1363.44,1494.71 1356.7,1495.51 1349.74,1495.51C1341.9,1495.51 1333.77,1494.5 1325.35,1492.48C1320.86,1491.39 1316.43,1490.88 1312.13,1490.88C1293.85,1490.88 1277.78,1500.12 1268.21,1513.93ZM2553.17,1247.51L2445,1047.59C2443.7,1044.68 2442.38,1041.79 2441.01,1038.95L2534.64,1211.97C2541,1223.72 2547.18,1235.57 2553.17,1247.51ZM1399.54,1138.51C1402.11,1075.26 1422.75,1014.07 1458.72,964.088C1508.7,894.717 1573,857.276 1655.28,849.624C1664.27,848.787 1673.34,848.371 1682.44,848.371C1726.82,848.371 1772.24,858.249 1815.26,877.408C1871.61,902.451 1930.05,914.976 1990.12,914.976C2044.4,914.975 2100.02,904.744 2156.61,884.273C2180.65,875.58 2205.53,871.274 2230.07,871.274C2264.14,871.274 2297.57,879.578 2327.22,895.972C2369.33,919.244 2400.73,955.221 2423.21,1005.95C2423.36,1006.29 2423.52,1006.62 2423.7,1006.95L2426.87,1012.8C2405.77,978.243 2378.24,950.509 2342.97,931.018C2310.88,913.27 2275.07,904.603 2239.03,904.603C2212.62,904.603 2186.09,909.257 2160.8,918.405C2106.22,938.153 2052.26,948.428 1999,948.429C1941.82,948.429 1885.44,936.587 1829.92,911.91C1786.24,892.466 1739.1,881.657 1691.58,881.657C1682.04,881.657 1672.49,882.092 1662.94,882.981C1575.78,891.086 1507.51,932.144 1456.31,1003.21C1427.23,1043.61 1408.17,1089.98 1399.54,1138.51Z" style="fill:rgb(196,188,207);fill-rule:nonzero;"/>
        <path d="M2567.1,1790.17C2493.73,1997.66 2303.52,2032.49 2058.72,2033.3C1990.99,2033.51 1925.45,2008.07 1876.72,1961.06C1849.67,1934.97 1825.09,1905.88 1802.76,1874.11C1795.73,1864.12 1789.55,1853.66 1784.3,1842.82L1784.24,1842.71L1783.6,1841.37L1779.95,1833.32C1763.85,1796.44 1757.62,1755.71 1761.86,1715.19C1772.38,1615.73 1789.45,1520.19 1816.5,1430.62C1832.12,1378.93 1857.56,1330.73 1890.94,1288.33C1960.66,1199.72 2035.59,1121.36 2118.89,1059.58L2118.94,1059.58C2152.27,1034.84 2186.94,1012.78 2223.22,993.835C2447.57,1061.35 2683.35,1460.94 2567.1,1790.17Z" style="fill:rgb(0,0,114);fill-rule:nonzero;"/>
        <path d="M2431.98,1848.3C2436.59,2009.68 2254.49,2033.84 2151.83,2012.06C2118.54,2004.97 2090.2,1983.53 2073.95,1953.69L2053.62,1916.28C1967.59,1910.94 1886.37,1903.37 1802.77,1874.11L1785.06,1844.08L1784.28,1842.82L1784.23,1842.72L1783.6,1841.36L1779.96,1833.31C1763.85,1796.43 1757.64,1755.72 1761.87,1715.16C1772.39,1615.74 1789.42,1520.2 1816.5,1430.64C1832.12,1378.91 1857.55,1330.73 1890.93,1288.33C1960.65,1199.73 2035.57,1121.36 2118.88,1059.6L2118.93,1059.6C2208.16,1063.34 2289.96,1098.32 2359.3,1151.84C2598.46,1336.31 2689.97,1741.41 2431.98,1848.3Z" style="fill:white;fill-rule:nonzero;"/>
        <path d="M2567.1,1790.17L2567.15,1790.17L2567.1,1790.17ZM2126.52,1071.38C2050.3,1128.02 1976.84,1201.83 1901.96,1297C1869.18,1338.63 1844.94,1384.95 1829.92,1434.67C1804.76,1517.99 1787.06,1610.23 1775.81,1716.66C1771.82,1754.72 1777.7,1793.13 1792.8,1827.71L1796.88,1836.64C1801.84,1846.86 1807.67,1856.72 1814.23,1866.03C1836.32,1897.48 1860.62,1926.05 1886.45,1950.96C1932.13,1995.03 1992.98,2019.28 2057.85,2019.28C2058.13,2019.28 2058.4,2019.28 2058.67,2019.27C2313.66,2018.43 2485.45,1979.03 2553.88,1785.49C2606.78,1635.67 2588.61,1454.12 2504.03,1287.39C2433.47,1148.33 2326.86,1042.27 2224.6,1008.96C2191.8,1026.44 2159.09,1047.23 2127.3,1070.84C2127.04,1071.03 2126.78,1071.21 2126.52,1071.38ZM2057.85,2047.32C1985.67,2047.32 1917.92,2020.29 1866.98,1971.15C1839.87,1945 1814.4,1915.06 1791.29,1882.17C1783.87,1871.65 1777.27,1860.46 1771.68,1848.94L1767.17,1839.1C1750.06,1799.91 1743.42,1756.62 1747.92,1713.73C1759.36,1605.51 1777.4,1511.58 1803.08,1426.56C1819.12,1373.48 1844.97,1324.05 1879.92,1279.66C1956.6,1182.21 2032.03,1106.54 2110.53,1048.32C2110.78,1048.13 2111.05,1047.95 2111.31,1047.78C2145.72,1022.3 2181.18,999.971 2216.74,981.402C2219.98,979.708 2223.76,979.356 2227.27,980.406C2338.25,1013.81 2453.88,1126.58 2529.04,1274.7C2617.08,1448.23 2635.77,1637.81 2580.32,1794.83L2580.32,1794.84C2544.69,1895.6 2479.95,1963.45 2382.38,2002.27C2304.25,2033.35 2207.46,2046.83 2058.76,2047.32L2057.85,2047.32Z" style="fill:rgb(0,0,114);fill-rule:nonzero;"/>
        <path d="M2298.2,964.89C2286.48,971.269 2274.91,978.048 2263.45,984.951C2252.02,991.873 2240.63,998.96 2229.72,1006.26C2223.25,1010.59 2214.49,1008.86 2210.16,1002.39C2205.82,995.913 2207.56,987.152 2214.03,982.82C2214.87,982.261 2215.83,981.769 2216.73,981.41C2229.62,976.331 2242.4,971.785 2255.28,967.371C2268.15,962.991 2281.05,958.778 2294.14,954.954C2297,954.118 2300,955.759 2300.83,958.621C2301.56,961.103 2300.42,963.686 2298.24,964.872L2298.2,964.89Z" style="fill:rgb(0,0,114);fill-rule:nonzero;"/>
        <path d="M1483.15,1561.78C1484.79,1561.78 1486.44,1562.07 1488.04,1562.66C1493.64,1564.75 1497.31,1570.17 1497.16,1576.14C1496.6,1599.04 1497.9,1619.33 1501.12,1638.15C1505.72,1664.89 1501.38,1692.85 1488.93,1716.86L1452.06,1787.98C1438.61,1813.92 1435.66,1843.91 1443.97,1870.26C1475.53,1970.51 1582.57,2039.51 1762.08,2075.37C1869.7,2096.89 1982.96,2103.55 2098.71,2095.2L2231.45,2085.6C2320.78,2079.13 2404.89,2049.7 2474.7,2000.48C2518.53,1969.59 2556.12,1931.77 2586.44,1888.07C2638.88,1812.49 2666.59,1722.68 2666.59,1628.35C2666.59,1588.11 2661.49,1547.99 2651.42,1509.11C2624.76,1405.9 2585.47,1305.93 2534.64,1211.97L2423.7,1006.95C2423.52,1006.62 2423.36,1006.29 2423.21,1005.95C2400.73,955.221 2369.33,919.244 2327.22,895.972C2276.22,867.769 2214.03,863.511 2156.61,884.273C2037.39,927.393 1922.55,925.084 1815.26,877.408C1763.41,854.317 1708.08,844.708 1655.28,849.624C1573,857.276 1508.7,894.717 1458.72,964.088C1418.3,1020.26 1397.23,1090.59 1399.42,1162.1C1400.62,1200.99 1402.44,1239.26 1404.21,1276.26C1406.33,1320.89 1408.34,1363.05 1408.99,1401.03C1409.46,1428.82 1391.09,1452.82 1364.32,1459.41C1348.38,1463.33 1331.15,1463.13 1313.11,1458.79C1298.12,1455.17 1283.32,1459.81 1273.43,1471.17C1263.9,1482.13 1261.44,1496.85 1266.84,1510.53C1289.06,1566.83 1326.99,1603.09 1370.9,1610.03C1407.98,1615.91 1444.89,1600.15 1472.32,1566.88C1475.04,1563.58 1479.04,1561.78 1483.15,1561.78ZM2002.69,2126.73C1918.49,2126.73 1836.06,2118.75 1756.59,2102.87C1566.28,2064.86 1452.1,1989.43 1417.22,1878.69C1406.7,1845.32 1410.32,1807.55 1427.17,1775.07L1464.04,1703.95C1473.69,1685.33 1477.05,1663.65 1473.48,1642.9C1471.61,1632 1470.34,1620.72 1469.64,1608.85C1439.38,1633.12 1403.15,1643.53 1366.52,1637.73C1312.55,1629.2 1266.71,1586.59 1240.76,1520.83C1231.43,1497.22 1235.74,1471.78 1252.27,1452.77C1268.91,1433.64 1294.73,1425.5 1319.68,1431.53C1333.3,1434.8 1346.08,1435.03 1357.61,1432.18C1371.6,1428.74 1381.2,1416.13 1380.95,1401.51C1380.31,1363.96 1378.31,1322.01 1376.19,1277.6C1374.43,1240.47 1372.59,1202.09 1371.39,1162.95C1369.02,1085.31 1391.95,1008.87 1435.96,947.7C1490.21,872.422 1563.12,830.03 1652.68,821.704C1710.27,816.333 1770.43,826.753 1826.66,851.787C1927.09,896.412 2034.9,898.473 2147.07,857.906C2212.12,834.366 2282.71,839.312 2340.79,871.431C2387.64,897.325 2423.93,938.589 2448.63,994.082L2559.31,1198.63C2611.21,1294.59 2651.34,1396.68 2678.57,1502.09C2689.24,1543.26 2694.64,1585.74 2694.64,1628.35C2694.64,1728.41 2665.19,1823.76 2609.48,1904.05C2577.28,1950.46 2537.37,1990.62 2490.86,2023.4C2416.89,2075.55 2327.89,2106.73 2233.47,2113.56L2100.73,2123.17C2067.85,2125.55 2035.13,2126.73 2002.69,2126.73Z" style="fill:rgb(0,0,114);fill-rule:nonzero;"/>
        <path d="M1502.19,1452.19C1498.83,1493.85 1495.31,1535.56 1497.16,1576.14C1497.51,1583.89 1491.51,1590.46 1483.76,1590.82C1476,1591.17 1469.43,1585.17 1469.08,1577.41C1469.05,1576.78 1469.07,1576.08 1469.12,1575.46C1473.16,1532.48 1482.54,1491.44 1491.57,1450.58C1492.22,1447.68 1495.09,1445.85 1497.99,1446.49C1500.65,1447.08 1502.4,1449.56 1502.19,1452.19Z" style="fill:rgb(0,0,114);fill-rule:nonzero;"/>
        <path d="M1408.99,1401.31C1407.47,1424.29 1405.44,1447.18 1402.67,1470.05C1401.27,1481.48 1399.69,1492.9 1397.68,1504.32C1395.59,1515.75 1393.33,1527.14 1389.17,1538.63C1388.17,1541.42 1385.09,1542.86 1382.3,1541.85C1379.73,1540.92 1378.31,1538.23 1378.89,1535.63L1378.95,1535.36C1381.27,1525.01 1382.13,1513.77 1382.71,1502.63C1383.24,1491.44 1383.37,1480.17 1383.32,1468.9C1383.17,1446.35 1382.31,1423.75 1380.95,1401.24C1380.47,1393.49 1386.37,1386.83 1394.11,1386.36C1401.86,1385.88 1408.52,1391.78 1408.99,1399.52C1409.03,1400.09 1409.02,1400.75 1408.99,1401.31Z" style="fill:rgb(0,0,114);fill-rule:nonzero;"/>
        <path d="M1465.26,1702.01C1480.64,1683.88 1498.23,1667.93 1517.21,1654.39C1536.2,1640.83 1556.54,1629.65 1577.51,1620.47C1580.23,1619.28 1583.41,1620.52 1584.6,1623.24C1585.7,1625.76 1584.72,1628.65 1582.42,1630.02C1544.22,1652.8 1510.92,1682.82 1487.7,1718.82C1483.49,1725.34 1474.8,1727.22 1468.27,1723.01C1461.75,1718.81 1459.87,1710.11 1464.08,1703.58C1464.4,1703.08 1464.75,1702.61 1465.12,1702.17L1465.26,1702.01Z" style="fill:rgb(0,0,114);fill-rule:nonzero;"/>
        <path d="M2220.64,2033.03C2195.39,2033.03 2170.9,2030.42 2148.93,2025.76C2111.78,2017.86 2079.97,1994.03 2061.65,1960.41L2045,1929.8C1963.1,1924.55 1882.43,1916.83 1798.13,1887.34C1795,1886.25 1792.36,1884.08 1790.69,1881.23L1772.16,1849.83C1768.23,1843.16 1770.45,1834.57 1777.12,1830.63C1783.79,1826.68 1792.39,1828.92 1796.32,1835.59L1812.21,1862.53C1894.09,1890.38 1973.55,1897.25 2054.49,1902.3C2059.31,1902.6 2063.63,1905.36 2065.94,1909.59L2086.28,1947C2100.68,1973.42 2125.64,1992.13 2154.76,1998.33C2220.2,2012.22 2316.03,2006.01 2371.73,1959.56C2403.75,1932.86 2419.32,1895.56 2417.99,1848.69C2417.83,1842.88 2421.27,1837.56 2426.64,1835.34C2542.47,1787.34 2593.3,1671.77 2566.09,1518.26C2529.52,1311.93 2347.98,1083.27 2118.41,1073.6C2110.91,1073.32 2104.89,1067.15 2104.89,1059.59C2104.89,1051.65 2111.46,1045.19 2119.53,1045.58C2232.88,1050.34 2344.83,1105.76 2434.75,1201.61C2516.01,1288.24 2573.95,1401.87 2593.71,1513.36C2622.3,1674.69 2567.19,1802.52 2446.1,1857.46C2445.35,1908.93 2426.4,1950.49 2389.69,1981.1C2345.15,2018.23 2280.76,2033.03 2220.64,2033.03Z" style="fill:rgb(0,0,114);fill-rule:nonzero;"/>
        <path d="M2154.93,1571.5C2184.18,1644.42 2165.73,1720.44 2113.73,1741.3C2061.72,1762.16 1995.85,1719.96 1966.61,1647.04C1937.36,1574.13 1955.81,1498.11 2007.81,1477.25C2059.81,1456.39 2125.68,1498.59 2154.93,1571.5Z" style="fill:rgb(0,0,114);fill-rule:nonzero;"/>
        <path d="M2060.63,1746.35C2012.1,1746.35 1959.85,1704.68 1934.16,1640.68C1903.16,1563.34 1922.71,1482.7 1977.88,1460.57C1987.43,1456.75 1997.43,1454.92 2007.58,1454.92C2031.1,1454.92 2055.49,1464.71 2077.32,1482.13C2063.68,1475.49 2049.58,1471.92 2035.8,1471.92C2026.23,1471.92 2016.81,1473.64 2007.81,1477.25C1955.81,1498.11 1937.36,1574.13 1966.61,1647.04C1972.48,1661.69 1979.84,1675.11 1988.27,1687.02C1988.28,1687.03 1988.29,1687.05 1988.3,1687.06C1988.34,1687.12 1988.38,1687.18 1988.43,1687.24C1988.47,1687.3 1988.51,1687.36 1988.55,1687.42C1988.57,1687.44 1988.58,1687.46 1988.6,1687.48C2011.41,1719.52 2041.98,1740.6 2072.25,1745.54C2068.41,1746.08 2064.53,1746.35 2060.63,1746.35Z" style="fill:rgb(178,178,212);fill-rule:nonzero;"/>
        <path d="M1988.6,1687.48C1988.58,1687.46 1988.57,1687.44 1988.55,1687.42C1988.57,1687.44 1988.58,1687.46 1988.6,1687.48ZM1988.43,1687.24C1988.38,1687.18 1988.34,1687.12 1988.3,1687.06C1988.34,1687.12 1988.39,1687.19 1988.43,1687.24ZM1988.27,1687.02C1979.84,1675.11 1972.48,1661.69 1966.61,1647.04C1937.36,1574.13 1955.81,1498.11 2007.81,1477.25C2016.81,1473.64 2026.23,1471.92 2035.8,1471.92C2049.58,1471.92 2063.68,1475.49 2077.32,1482.13C2077.38,1482.17 2077.44,1482.22 2077.49,1482.26C2063.8,1475.55 2049.63,1471.94 2035.79,1471.94C2026.22,1471.94 2016.82,1473.66 2007.82,1477.26C1955.8,1498.13 1937.36,1574.11 1966.62,1647.04C1972.49,1661.69 1979.84,1675.1 1988.27,1687.02Z" style="fill:rgb(0,0,114);fill-rule:nonzero;"/>
        <path d="M2498.2,1580.12C2488.95,1650.21 2442.89,1701.93 2395.32,1695.65C2347.75,1689.37 2316.69,1627.46 2325.94,1557.38C2335.2,1487.29 2381.26,1435.57 2428.83,1441.85C2476.4,1448.13 2507.46,1510.04 2498.2,1580.12Z" style="fill:rgb(0,0,114);fill-rule:nonzero;"/>
        <path d="M2368,1690.38C2365.22,1690.38 2362.43,1690.2 2359.64,1689.83C2309.71,1683.23 2277.11,1618.31 2286.81,1544.76C2295.98,1475.29 2339.65,1423.02 2386.57,1423.02C2389.29,1423.02 2392.03,1423.19 2394.77,1423.55C2409.13,1425.44 2422.04,1432.19 2432.91,1442.52C2432.81,1442.51 2432.72,1442.49 2432.63,1442.47C2431.47,1442.25 2430.31,1442.05 2429.14,1441.89C2429.04,1441.87 2428.93,1441.86 2428.83,1441.84C2426.41,1441.53 2423.99,1441.36 2421.59,1441.33L2420.97,1441.33C2394.35,1441.33 2368.82,1459.02 2350.68,1487.33C2338.37,1506.53 2329.46,1530.61 2325.92,1557.37C2318.01,1617.64 2339.79,1671.78 2376.28,1689.83C2373.54,1690.2 2370.78,1690.38 2368,1690.38Z" style="fill:rgb(178,178,212);fill-rule:nonzero;"/>
        <path d="M2350.68,1487.33C2368.82,1459.02 2394.35,1441.33 2420.97,1441.33L2421.59,1441.33L2421,1441.33C2394.38,1441.33 2368.83,1459.02 2350.68,1487.33ZM2432.63,1442.47C2431.47,1442.27 2430.3,1442.06 2429.14,1441.89C2430.31,1442.05 2431.47,1442.25 2432.63,1442.47Z" style="fill:rgb(0,0,114);fill-rule:nonzero;"/>
        <path d="M2245.71,1719.35C2237.85,1735.67 2227.57,1760.91 2223.75,1787.68C2222.51,1796.39 2229.68,1804.03 2238.45,1803.44L2290.65,1799.97C2299.74,1799.37 2305.83,1790.34 2302.89,1781.71C2297.42,1765.62 2286.96,1740.53 2269.19,1716.85C2262.99,1708.6 2250.18,1710.05 2245.71,1719.35Z" style="fill:rgb(0,0,114);fill-rule:nonzero;"/>
        <path d="M2213.3,1808.98C2203.97,1808.98 2196.51,1800.7 2197.87,1791.29C2202.14,1761.26 2213.64,1732.97 2222.47,1714.68C2225.25,1708.9 2230.92,1705.83 2236.6,1705.83C2241.14,1705.83 2245.69,1707.79 2248.77,1711.91C2249.3,1712.58 2249.78,1713.3 2250.26,1713.97C2249.78,1714.31 2249.31,1714.68 2248.88,1715.08C2247.59,1716.21 2246.51,1717.64 2245.71,1719.33C2245.47,1719.83 2245.23,1720.34 2244.99,1720.85C2241.23,1728.77 2237,1738.61 2233.21,1749.6C2229.18,1761.3 2225.65,1774.31 2223.73,1787.7C2223.4,1790.12 2223.71,1792.46 2224.53,1794.56C2226.52,1799.74 2231.58,1803.47 2237.51,1803.47C2237.82,1803.47 2238.14,1803.46 2238.45,1803.44L2265.64,1801.64L2282.83,1800.51C2280.26,1803.08 2276.81,1804.78 2272.84,1805.07L2214.32,1808.95C2213.98,1808.97 2213.64,1808.98 2213.3,1808.98Z" style="fill:rgb(178,178,212);fill-rule:nonzero;"/>
        <path d="M2237.51,1803.47C2231.58,1803.47 2226.52,1799.74 2224.53,1794.56C2226.54,1799.72 2231.59,1803.45 2237.5,1803.45C2237.81,1803.45 2238.12,1803.44 2238.44,1803.42L2265.64,1801.64L2238.45,1803.44C2238.14,1803.46 2237.82,1803.47 2237.51,1803.47ZM2233.21,1749.6C2237,1738.61 2241.23,1728.77 2244.99,1720.85C2241.23,1728.78 2237,1738.61 2233.21,1749.6ZM2248.88,1715.08C2249.31,1714.68 2249.78,1714.31 2250.26,1713.97C2250.26,1713.98 2250.27,1713.99 2250.27,1714C2249.79,1714.32 2249.32,1714.68 2248.88,1715.08Z" style="fill:rgb(0,0,114);fill-rule:nonzero;"/>
        <path d="M2199.43,1926.81L2211.55,2017.61C2212.58,2025.32 2207.16,2032.4 2199.45,2033.43C2191.74,2034.46 2184.65,2029.04 2183.62,2021.34C2183.51,2020.46 2183.48,2019.52 2183.52,2018.68L2188.7,1927.21C2188.87,1924.24 2191.41,1921.97 2194.39,1922.14C2197.01,1922.29 2199.09,1924.29 2199.43,1926.81Z" style="fill:rgb(0,0,114);fill-rule:nonzero;"/>
        <path d="M2280.36,1922.93L2296.61,2003.49C2298.15,2011.13 2293.22,2018.56 2285.58,2020.1C2277.95,2021.64 2270.51,2016.7 2268.97,2009.07C2268.77,2008.1 2268.69,2007.06 2268.69,2006.11L2269.67,1923.93C2269.71,1920.95 2272.15,1918.57 2275.13,1918.6C2277.73,1918.63 2279.87,1920.49 2280.36,1922.93Z" style="fill:rgb(0,0,114);fill-rule:nonzero;"/>
        <path d="M2354.74,1912.95L2377.04,1977.85C2379.57,1985.24 2375.64,1993.28 2368.26,1995.81C2360.88,1998.35 2352.84,1994.42 2350.3,1987.04C2349.91,1985.91 2349.67,1984.69 2349.58,1983.55L2344.23,1915.13C2344,1912.15 2346.23,1909.55 2349.2,1909.31C2351.72,1909.12 2353.96,1910.67 2354.74,1912.95Z" style="fill:rgb(0,0,114);fill-rule:nonzero;"/>
        <path d="M2710.55,2678.28C2709.6,2678.15 2708.64,2678.01 2707.69,2677.87C2707.32,2633.12 2710.38,2590.58 2716.84,2550.56C2725.31,2577.24 2734.78,2603.65 2745.17,2629.33C2731.09,2644.12 2719.54,2660.45 2710.55,2678.28ZM2679.63,2672.77C2559.02,2646.54 2453.73,2567.39 2355.3,2430.1C2354.15,2421.64 2353.01,2413.25 2351.85,2404.95C2351.64,2403.43 2351.2,2402 2350.55,2400.69L2339.33,2331.52C2379.23,2387.8 2477.1,2513.58 2574.94,2544.91C2578.22,2545.24 2581.33,2545.4 2584.27,2545.4C2674.89,2545.4 2605.96,2392.1 2667.73,2298.43C2668.63,2312.69 2669.94,2327.31 2671.64,2342.22C2671.55,2343.84 2671.74,2345.48 2672.21,2347.04C2677.79,2393.79 2687.21,2443.19 2700.1,2492.61C2686.36,2547.67 2679.48,2608.04 2679.63,2672.77Z" style="fill:rgb(75,61,129);fill-rule:nonzero;"/>
        <path d="M2679.78,2686.83C2544.63,2658.02 2441.7,2568.34 2359.14,2458.96C2357.87,2449.26 2356.59,2439.64 2355.3,2430.1C2453.73,2567.39 2559.02,2646.54 2679.63,2672.77C2679.65,2677.43 2679.69,2682.12 2679.78,2686.83ZM2707.77,2684.02C2707.74,2681.97 2707.71,2679.91 2707.69,2677.87C2708.64,2678.01 2709.6,2678.15 2710.55,2678.28C2709.59,2680.18 2708.67,2682.09 2707.77,2684.02ZM2745.17,2629.33C2734.78,2603.65 2725.31,2577.24 2716.84,2550.56C2718.57,2539.87 2720.54,2529.34 2722.74,2519.02C2733.27,2551.59 2745.8,2583.52 2760.4,2614.78C2755.03,2619.45 2749.95,2624.3 2745.17,2629.33ZM2700.1,2492.61C2687.21,2443.19 2677.79,2393.79 2672.21,2347.04C2673.01,2349.74 2674.64,2352.23 2677.03,2354.09C2679.59,2356.08 2682.62,2357.05 2685.63,2357.05C2686.11,2357.05 2686.6,2357.02 2687.07,2356.97C2691.7,2393.94 2698.46,2430.24 2707.45,2465.83C2704.82,2474.6 2702.36,2483.54 2700.1,2492.61ZM2671.64,2342.22C2669.94,2327.31 2668.63,2312.69 2667.73,2298.43C2671.5,2292.71 2675.76,2287.21 2680.57,2281.98L2680.62,2281.93C2681.06,2290.76 2681.59,2299.54 2682.22,2308.33C2682.46,2311.72 2682.75,2315.12 2683.04,2318.52C2683.17,2320.02 2683.3,2321.52 2683.44,2323.02L2674.57,2334.41C2672.76,2336.75 2671.8,2339.47 2671.64,2342.22Z" style="fill:rgb(0,0,114);fill-rule:nonzero;"/>
        <path d="M2685.63,2357.05C2682.62,2357.05 2679.59,2356.08 2677.03,2354.09C2674.64,2352.23 2673.01,2349.74 2672.21,2347.04C2671.74,2345.48 2671.55,2343.84 2671.64,2342.22C2671.8,2339.47 2672.76,2336.75 2674.57,2334.41L2683.44,2323.02C2684.45,2334.4 2685.67,2345.71 2687.07,2356.97C2686.6,2357.02 2686.11,2357.05 2685.63,2357.05Z" style="fill:rgb(0,0,114);fill-rule:nonzero;"/>
        <path d="M2359.14,2458.96C2353.09,2450.95 2347.15,2442.84 2341.31,2434.63L2339.81,2425.12C2339.47,2422.69 2339.14,2420.26 2338.8,2417.85C2338.91,2417.83 2339.01,2417.82 2339.12,2417.8C2346.76,2416.56 2351.96,2409.36 2350.72,2401.71L2350.55,2400.69C2351.2,2402 2351.64,2403.43 2351.85,2404.95C2353.01,2413.25 2354.15,2421.64 2355.3,2430.1C2356.59,2439.64 2357.87,2449.26 2359.14,2458.96Z" style="fill:rgb(0,0,114);fill-rule:nonzero;"/>
        <path d="M2338.8,2417.85C2338.15,2413.18 2337.5,2408.55 2336.85,2403.96L2322.58,2315.94C2322.56,2315.92 2322.54,2315.89 2322.51,2315.86L2320.64,2304.06C2320.64,2304.06 2327.39,2314.67 2339.33,2331.52L2350.55,2400.69L2350.72,2401.71C2351.96,2409.36 2346.76,2416.56 2339.12,2417.8C2339.01,2417.82 2338.91,2417.83 2338.8,2417.85Z" style="fill:rgb(0,0,114);fill-rule:nonzero;"/>
        <path d="M2002.68,2098.69C1920.33,2098.69 1839.73,2090.89 1762.08,2075.37C1594.71,2041.94 1490.34,1979.69 1451.41,1890.17C1517.97,1937.02 1582.51,1952.14 1638.09,1952.14C1726.61,1952.14 1792.4,1913.8 1807.47,1904.22C1826.11,1928.53 1846.06,1950.97 1866.98,1971.15C1917.92,2020.29 1985.67,2047.32 2057.85,2047.32L2058.76,2047.32C2207.46,2046.83 2304.25,2033.35 2382.38,2002.27C2479.95,1963.45 2544.69,1895.6 2580.32,1794.84L2580.32,1794.83C2612,1705.14 2619.48,1604.83 2603.66,1502.95C2619.43,1480.58 2620.26,1433 2618.88,1402.19C2631.24,1437.36 2642.1,1473.04 2651.42,1509.11C2661.49,1547.99 2666.59,1588.11 2666.59,1628.35C2666.59,1722.68 2638.88,1812.49 2586.44,1888.07C2556.12,1931.77 2518.53,1969.59 2474.7,2000.48C2404.89,2049.7 2320.78,2079.13 2231.45,2085.6L2098.71,2095.2C2066.48,2097.53 2034.46,2098.69 2002.68,2098.69ZM1751.94,1791.49L1750.28,1788.38C1719.51,1730.47 1660.29,1697.65 1599.31,1697.65C1570.1,1697.65 1540.5,1705.18 1513.41,1721.08C1500.49,1728.68 1487.59,1736.49 1474.8,1744.11L1488.76,1717.2C1511.93,1681.91 1544.8,1652.45 1582.42,1630.02C1584.72,1628.65 1585.7,1625.76 1584.6,1623.24C1583.71,1621.23 1581.74,1620.02 1579.67,1620.02C1578.95,1620.02 1578.21,1620.17 1577.51,1620.47C1556.54,1629.65 1536.2,1640.83 1517.21,1654.39C1512.3,1657.9 1507.47,1661.57 1502.76,1665.4C1503.2,1656.31 1502.67,1647.16 1501.12,1638.15C1497.99,1619.85 1496.67,1600.18 1497.12,1578.06C1497.17,1577.43 1497.19,1576.79 1497.16,1576.14C1497.18,1575.5 1497.15,1574.86 1497.08,1574.24C1496.14,1551.65 1496.84,1528.7 1498.22,1505.62C1514.54,1535.9 1544.22,1550.43 1573.88,1550.43C1612.64,1550.43 1651.36,1525.62 1660.15,1478.75C1669.85,1427.03 1690.35,1382.95 1710.32,1349.76C1733.7,1310.88 1767.01,1278.95 1806.49,1256.59L1992.74,1151.09C1955.1,1189.01 1917.66,1231.7 1879.92,1279.66C1844.97,1324.05 1819.12,1373.48 1803.08,1426.56C1777.4,1511.58 1759.36,1605.51 1747.92,1713.73C1745.18,1739.84 1746.57,1766.1 1751.94,1791.49ZM1386.18,1611.24C1381.1,1611.24 1376,1610.84 1370.9,1610.03C1339.51,1605.07 1311.18,1585.12 1289.46,1553.59C1315.68,1565.34 1339.34,1570.07 1360.46,1570.07C1421.49,1570.07 1461.19,1530.56 1479.51,1506.88C1475.43,1527.6 1471.9,1548.57 1469.66,1570.02C1446.39,1596.71 1416.78,1611.24 1386.18,1611.24Z" style="fill:rgb(75,61,129);fill-rule:nonzero;"/>
        <path d="M2057.85,2019.28C1992.98,2019.28 1932.13,1995.03 1886.45,1950.96C1870.38,1935.47 1854.91,1918.55 1840.19,1900.41C1909.47,1919.35 1976.81,1925.43 2045,1929.8L2061.65,1960.41C2075.84,1986.45 2098.12,2006.61 2124.7,2018.05C2103.36,2018.82 2081.35,2019.2 2058.67,2019.27C2058.4,2019.28 2058.13,2019.28 2057.85,2019.28ZM2413.13,1957.08C2434.48,1929.89 2445.53,1896.53 2446.1,1857.46C2499.25,1833.34 2539.69,1795.19 2565.92,1746.31C2562.43,1759.59 2558.42,1772.65 2553.88,1785.49C2524.94,1867.34 2477.52,1921.62 2413.13,1957.08Z" style="fill:rgb(0,0,114);fill-rule:nonzero;"/>
        <path d="M2058.76,2047.32L2057.85,2047.32C1985.67,2047.32 1917.92,2020.29 1866.98,1971.15C1846.06,1950.97 1826.11,1928.53 1807.47,1904.22C1809.62,1902.85 1810.74,1902.06 1810.74,1902.06L1803.98,1889.36C1816.12,1893.47 1828.18,1897.13 1840.19,1900.41C1854.91,1918.55 1870.38,1935.47 1886.45,1950.96C1932.13,1995.03 1992.98,2019.28 2057.85,2019.28C2058.13,2019.28 2058.4,2019.28 2058.67,2019.27C2081.35,2019.2 2103.36,2018.82 2124.7,2018.05C2132.45,2021.39 2140.55,2023.98 2148.93,2025.76C2162.11,2028.56 2176.19,2030.62 2190.8,2031.81C2192.83,2032.93 2195.14,2033.56 2197.57,2033.56C2198.19,2033.56 2198.82,2033.52 2199.45,2033.43C2200.59,2033.28 2201.68,2032.99 2202.71,2032.59C2208.63,2032.88 2214.61,2033.03 2220.64,2033.03C2280.76,2033.03 2345.15,2018.23 2389.69,1981.1C2398.54,1973.72 2406.35,1965.71 2413.13,1957.08C2477.52,1921.62 2524.94,1867.34 2553.88,1785.49C2558.42,1772.65 2562.43,1759.59 2565.92,1746.31C2599.44,1683.84 2609.75,1603.87 2593.71,1513.36C2593.65,1513.04 2593.59,1512.7 2593.53,1512.38C2597.45,1510.23 2600.8,1507 2603.66,1502.95C2619.48,1604.83 2612,1705.14 2580.32,1794.83L2580.32,1794.84C2544.69,1895.6 2479.95,1963.45 2382.38,2002.27C2304.25,2033.35 2207.46,2046.83 2058.76,2047.32ZM2567.1,1790.17L2567.15,1790.17L2567.1,1790.17ZM1774.05,1833.07L1751.94,1791.49C1746.57,1766.1 1745.18,1739.84 1747.92,1713.73C1759.36,1605.51 1777.4,1511.58 1803.08,1426.56C1819.12,1373.48 1844.97,1324.05 1879.92,1279.66C1917.66,1231.7 1955.1,1189.01 1992.74,1151.09L2034.08,1127.67C2034.08,1127.67 2034.66,1128.11 2035.73,1128.98C2030.88,1133.5 2026.05,1138.08 2021.25,1142.71C1975.53,1186.75 1932.32,1235.74 1890.93,1288.33C1877.39,1305.53 1865.16,1323.69 1854.37,1342.65C1846.29,1356.83 1839.01,1371.46 1832.58,1386.48C1831.61,1388.68 1830.7,1390.88 1829.79,1393.13C1828.88,1395.3 1828.01,1397.51 1827.17,1399.73C1826.53,1401.39 1825.89,1403.06 1825.27,1404.73C1824.43,1406.95 1823.61,1409.17 1822.81,1411.42C1821.69,1414.58 1820.62,1417.73 1819.56,1420.93L1819.56,1420.99C1819.2,1422.07 1818.85,1423.16 1818.5,1424.25C1817.81,1426.38 1817.14,1428.51 1816.5,1430.64C1805.15,1468.18 1795.57,1506.78 1787.49,1546.27C1778.92,1588.07 1772.05,1630.88 1766.57,1674.51C1764.87,1687.99 1763.31,1701.54 1761.87,1715.16C1761.31,1720.53 1760.93,1725.89 1760.74,1731.25C1759.48,1765.19 1765.54,1798.85 1778.49,1829.92C1778.02,1830.13 1777.57,1830.37 1777.12,1830.63C1775.96,1831.32 1774.93,1832.14 1774.05,1833.07Z" style="fill:rgb(0,0,114);fill-rule:nonzero;"/>
        <path d="M2002.71,2112.72C1937.5,2112.72 1872.37,2107.88 1807.93,2097.8L1807.88,2097.75C1791.67,2095.22 1775.42,2092.36 1759.36,2089.11C1602.93,2057.86 1468.82,1995.85 1430.58,1874.5C1437.54,1880.08 1444.48,1885.29 1451.41,1890.17C1490.34,1979.69 1594.71,2041.94 1762.08,2075.37C1839.73,2090.89 1920.33,2098.69 2002.68,2098.69C2034.46,2098.69 2066.48,2097.53 2098.71,2095.2L2231.45,2085.6C2320.78,2079.13 2404.89,2049.7 2474.7,2000.48C2518.53,1969.59 2556.12,1931.77 2586.44,1888.07C2638.88,1812.49 2666.59,1722.68 2666.59,1628.35C2666.59,1588.11 2661.49,1547.99 2651.42,1509.11C2642.1,1473.04 2631.24,1437.36 2618.88,1402.19C2618.13,1385.39 2616.72,1373.58 2616.72,1373.58L2627.1,1383.57C2641.66,1423.55 2654.32,1464.31 2665,1505.6C2675.48,1546.02 2680.62,1587.26 2680.62,1628.36C2680.62,1723.17 2652.91,1816.86 2597.94,1896.05C2565.97,1942.14 2527.34,1980.52 2482.8,2011.91C2423.9,2053.5 2356.31,2080.52 2285.66,2092.99C2268.1,2096.1 2250.34,2098.28 2232.43,2099.59L2099.73,2109.2C2067.43,2111.53 2035.06,2112.72 2002.71,2112.72ZM1452.08,1757.47L1469.56,1723.75C1471.57,1724.77 1473.73,1725.26 1475.88,1725.26C1480.49,1725.26 1485.01,1722.99 1487.7,1718.82C1488.05,1718.28 1488.4,1717.74 1488.76,1717.2L1474.8,1744.11C1467.18,1748.66 1459.6,1753.14 1452.08,1757.47ZM1487.19,1678.97C1489.46,1666.34 1489.54,1653.33 1487.35,1640.54C1484.54,1624.3 1483.23,1607.75 1483.03,1590.83L1483.11,1590.83C1483.32,1590.83 1483.54,1590.83 1483.76,1590.82C1490.86,1590.49 1496.5,1584.95 1497.12,1578.06C1496.67,1600.18 1497.99,1619.85 1501.12,1638.15C1502.67,1647.16 1503.2,1656.31 1502.76,1665.4C1497.42,1669.72 1492.23,1674.25 1487.19,1678.97ZM1386.09,1625.25C1341.27,1625.25 1295.86,1598.04 1265.61,1541.31C1273.78,1546.05 1281.73,1550.13 1289.46,1553.59C1311.18,1585.12 1339.51,1605.07 1370.9,1610.03C1376,1610.84 1381.1,1611.24 1386.18,1611.24C1416.78,1611.24 1446.39,1596.71 1469.66,1570.02C1469.47,1571.83 1469.29,1573.64 1469.12,1575.46C1469.07,1576.08 1469.05,1576.78 1469.08,1577.41C1469.25,1581.08 1470.81,1584.36 1473.23,1586.76C1447.97,1612.17 1417.18,1625.25 1386.09,1625.25ZM1497.16,1576.14C1497.13,1575.5 1497.1,1574.87 1497.08,1574.24C1497.15,1574.86 1497.18,1575.5 1497.16,1576.14Z" style="fill:rgb(0,0,114);fill-rule:nonzero;"/>
        <path d="M1483.11,1590.83L1483.03,1590.83C1482.97,1585.86 1483.01,1580.85 1483.13,1575.81C1479.94,1579.68 1476.63,1583.33 1473.23,1586.76C1470.81,1584.36 1469.25,1581.08 1469.08,1577.41C1469.05,1576.78 1469.07,1576.08 1469.12,1575.46C1469.29,1573.64 1469.47,1571.83 1469.66,1570.02C1471.9,1548.57 1475.43,1527.6 1479.51,1506.88C1487.36,1496.73 1491.28,1489.49 1491.28,1489.49C1491.81,1490.96 1492.34,1492.41 1492.87,1493.83C1494.44,1498 1496.23,1501.93 1498.22,1505.62C1496.84,1528.7 1496.14,1551.65 1497.08,1574.24C1497.1,1574.87 1497.13,1575.5 1497.16,1576.14C1497.19,1576.79 1497.17,1577.43 1497.12,1578.06C1496.5,1584.95 1490.86,1590.49 1483.76,1590.82C1483.54,1590.83 1483.32,1590.83 1483.11,1590.83Z" style="fill:rgb(0,0,114);fill-rule:nonzero;"/>
        <path d="M1475.88,1725.26C1473.73,1725.26 1471.57,1724.77 1469.56,1723.75L1476.48,1710.41C1481.65,1700.47 1485.24,1689.87 1487.19,1678.97C1492.23,1674.25 1497.42,1669.72 1502.76,1665.4C1507.47,1661.57 1512.3,1657.9 1517.21,1654.39C1536.2,1640.83 1556.54,1629.65 1577.51,1620.47C1578.21,1620.17 1578.95,1620.02 1579.67,1620.02C1581.74,1620.02 1583.71,1621.23 1584.6,1623.24C1585.7,1625.76 1584.72,1628.65 1582.42,1630.02C1544.8,1652.45 1511.93,1681.91 1488.76,1717.2C1488.4,1717.74 1488.05,1718.28 1487.7,1718.82C1485.01,1722.99 1480.49,1725.26 1475.88,1725.26Z" style="fill:rgb(0,0,114);fill-rule:nonzero;"/>
        <path d="M2220.64,2033.03C2214.61,2033.03 2208.63,2032.88 2202.71,2032.59C2208.27,2030.43 2211.96,2024.9 2211.65,2018.79C2214.45,2018.85 2217.28,2018.89 2220.11,2018.89C2226.61,2018.89 2233.18,2018.71 2239.78,2018.35L2239.8,2018.34C2239.88,2018.34 2239.96,2018.34 2240.03,2018.33C2250.57,2017.74 2261.2,2016.66 2271.75,2015.05C2274.38,2018.36 2278.43,2020.39 2282.78,2020.39C2283.7,2020.39 2284.64,2020.29 2285.58,2020.1C2290.89,2019.03 2294.89,2015.11 2296.32,2010.26C2315.76,2005.59 2334.52,1998.89 2351.59,1989.78C2354.16,1994.03 2358.78,1996.58 2363.67,1996.58C2365.19,1996.58 2366.74,1996.34 2368.26,1995.81C2375.64,1993.28 2379.57,1985.24 2377.04,1977.85L2375.8,1974.26C2410.67,1947.48 2433.66,1906.95 2432,1848.3C2566.26,1792.65 2605.85,1656.26 2579.16,1512.25C2582.79,1513.43 2585.77,1514.05 2588.07,1514.05C2589.25,1514.05 2590.24,1513.89 2591.05,1513.56C2591.9,1513.21 2592.73,1512.82 2593.53,1512.38C2593.59,1512.7 2593.65,1513.04 2593.71,1513.36C2609.75,1603.87 2599.44,1683.84 2565.92,1746.31C2539.69,1795.19 2499.25,1833.34 2446.1,1857.46C2445.53,1896.53 2434.48,1929.89 2413.13,1957.08C2406.35,1965.71 2398.54,1973.72 2389.69,1981.1C2345.15,2018.23 2280.76,2033.03 2220.64,2033.03ZM2190.8,2031.81C2176.19,2030.62 2162.11,2028.56 2148.93,2025.76C2140.55,2023.98 2132.45,2021.39 2124.7,2018.05C2098.12,2006.61 2075.84,1986.45 2061.65,1960.41L2045,1929.8C1976.81,1925.43 1909.47,1919.35 1840.19,1900.41C1828.18,1897.13 1816.12,1893.47 1803.98,1889.36L1774.05,1833.07C1774.93,1832.14 1775.96,1831.32 1777.12,1830.63C1777.57,1830.37 1778.02,1830.13 1778.49,1829.92C1778.96,1831.05 1779.44,1832.18 1779.93,1833.31L1782.41,1838.73L1783.6,1841.36L1784.23,1842.72L1784.28,1842.82L1784.64,1843.4L1802.73,1874.11C1829.36,1883.43 1855.73,1890.54 1882.09,1896.09C1938.56,1907.96 1994.97,1912.64 2053.62,1916.28L2073.95,1953.69C2090.2,1983.53 2118.54,2004.97 2151.83,2012.06C2161.76,2014.17 2172.44,2015.85 2183.62,2017.01L2183.52,2018.68C2183.48,2019.52 2183.51,2020.46 2183.62,2021.34C2184.24,2025.94 2187.02,2029.73 2190.8,2031.81Z" style="fill:rgb(0,0,114);fill-rule:nonzero;"/>
        <path d="M2197.57,2033.56C2195.14,2033.56 2192.83,2032.93 2190.8,2031.81C2187.02,2029.73 2184.24,2025.94 2183.62,2021.34C2183.51,2020.46 2183.48,2019.52 2183.52,2018.68L2183.62,2017.01C2192.68,2017.96 2202.06,2018.56 2211.65,2018.79C2211.96,2024.9 2208.27,2030.43 2202.71,2032.59C2201.68,2032.99 2200.59,2033.28 2199.45,2033.43C2198.82,2033.52 2198.19,2033.56 2197.57,2033.56Z" style="fill:rgb(0,0,114);fill-rule:nonzero;"/>
        <path d="M2282.78,2020.39C2278.43,2020.39 2274.38,2018.36 2271.75,2015.05C2280.01,2013.79 2288.22,2012.2 2296.32,2010.26C2294.89,2015.11 2290.89,2019.03 2285.58,2020.1C2284.64,2020.29 2283.7,2020.39 2282.78,2020.39Z" style="fill:rgb(0,0,114);fill-rule:nonzero;"/>
        <path d="M2363.67,1996.58C2358.78,1996.58 2354.16,1994.03 2351.59,1989.78C2360.13,1985.22 2368.24,1980.07 2375.8,1974.26L2377.04,1977.85C2379.57,1985.24 2375.64,1993.28 2368.26,1995.81C2366.74,1996.34 2365.19,1996.58 2363.67,1996.58Z" style="fill:rgb(0,0,114);fill-rule:nonzero;"/>
        <path d="M2883.47,2161.32C2863.06,2207.94 2809.25,2204.01 2751.78,2178.85C2694.31,2153.68 2654.93,2116.79 2675.35,2070.18C2695.76,2023.57 2758.9,2006.18 2816.37,2031.35C2873.84,2056.52 2903.89,2114.71 2883.47,2161.32Z" style="fill:white;fill-rule:nonzero;"/>
        <path d="M2824.81,2183.22C2806.43,2183.22 2783.29,2177.34 2757.4,2166C2719.52,2149.41 2678.18,2122.7 2684.79,2086.71C2698.28,2097.45 2715.23,2106.97 2734.14,2115.26C2760.1,2126.61 2785.31,2133.64 2807.03,2133.64C2833.41,2133.64 2854.65,2123.27 2865.82,2097.7C2866.19,2096.85 2866.55,2096.01 2866.89,2095.16C2877.39,2115.74 2878.72,2137.23 2870.63,2155.7C2863.11,2172.88 2850.35,2181.56 2830.5,2183.02C2828.66,2183.15 2826.76,2183.22 2824.81,2183.22Z" style="fill:rgb(178,178,212);fill-rule:nonzero;"/>
        <path d="M2762.46,2033.81C2729.15,2033.81 2699.95,2048.95 2688.18,2075.8C2670,2117.33 2715.79,2147.78 2757.4,2166C2786.04,2178.54 2811.31,2184.4 2830.5,2183.02C2850.35,2181.56 2863.11,2172.88 2870.63,2155.7C2878.78,2137.1 2877.37,2115.45 2866.67,2094.73C2855.47,2073.03 2835.61,2055.08 2810.74,2044.19C2794.67,2037.16 2778.11,2033.81 2762.46,2033.81ZM2824.66,2211.27C2802.22,2211.27 2775.86,2204.7 2746.15,2191.68C2644.44,2147.14 2650.08,2092.91 2662.5,2064.55C2685.99,2010.94 2757.54,1990.28 2821.99,2018.51C2852.73,2031.97 2877.44,2054.47 2891.59,2081.87C2906.24,2110.24 2907.92,2140.46 2896.32,2166.95C2884.67,2193.55 2862.62,2208.78 2832.55,2210.99C2829.98,2211.17 2827.35,2211.27 2824.66,2211.27Z" style="fill:rgb(0,0,114);fill-rule:nonzero;"/>
        <path d="M1520.89,1156.27C1514.11,1156.27 1507.36,1154.18 1500.63,1149.62C1468.5,1127.82 1468.96,1071.1 1501.64,1022.94C1525.64,987.58 1560.33,966.658 1589.79,966.658C1600.47,966.658 1610.45,969.401 1618.99,975.199C1651.12,996.997 1630.92,1040.32 1598.23,1088.48C1572.4,1126.56 1546.48,1156.27 1520.89,1156.27Z" style="fill:rgb(135,119,158);fill-rule:nonzero;"/>
        <path d="M1684.63,997.956C1674.23,997.956 1663.61,988.502 1652.84,976.278C1637.6,958.976 1627.82,942.677 1642.3,929.925C1648.11,924.803 1655.48,922.334 1663.2,922.334C1674.7,922.334 1686.98,927.813 1696.1,938.165C1711.35,955.467 1711.97,979.831 1697.5,992.582C1693.25,996.324 1688.96,997.956 1684.63,997.956Z" style="fill:rgb(135,119,158);fill-rule:nonzero;"/>
        <path d="M1961.34,3093.35C1931.06,3093.35 1899.3,3081.67 1872.84,3056.97C1887.28,3061.82 1902.67,3064.26 1917.88,3064.26C1941.94,3064.26 1965.56,3058.15 1984.24,3045.82C2012.86,3026.94 2026.55,2996.92 2023.6,2960.34C2046.86,2957.24 2065.03,2937.17 2065.54,2913.33L2073.9,2520.52C2073.95,2520.05 2073.98,2519.57 2073.99,2519.08L2077.79,2246.85C2077.82,2244.05 2075.67,2241.64 2072.84,2241.43C2072.69,2241.41 2072.55,2241.41 2072.41,2241.41C2069.64,2241.41 2067.28,2243.55 2067.07,2246.36L2046.5,2511C2046.18,2512.11 2046,2513.28 2045.97,2514.5L2037.5,2912.72C2037.28,2923.22 2028.99,2931.99 2018.62,2932.68C1997.14,2934.1 1975.53,2934.81 1953.78,2934.81C1906.2,2934.81 1858.02,2931.4 1809.53,2924.62C1940.47,2909.3 1957.9,2820.66 1957.9,2820.66L2009.97,2351.66C2022.83,2199.06 1955.19,2147.29 1936.8,2136.13C1933.06,2133.85 1929.57,2131.27 1926.22,2128.41L1921.41,2124.22C1948.29,2125.9 1975.4,2126.73 2002.69,2126.73C2035.13,2126.73 2067.85,2125.55 2100.73,2123.17L2233.47,2113.56C2247.37,2112.56 2261.17,2111.02 2274.81,2108.97L2300.89,2269.69C2257.88,2221.87 2219.53,2205.56 2187.25,2205.56C2177.95,2205.56 2169.17,2206.91 2160.91,2209.25C2160.91,2209.25 2160.87,2209.25 2160.77,2209.3C2157.71,2210.51 2106.86,2232.63 2111.57,2358.16L2122.53,2949.24C2122.78,2960.35 2116.13,2970.49 2105.89,2974.81L2082.89,2984.46C2075.61,2987.52 2070.13,2993.97 2068.73,3001.78C2058.26,3060.76 2011.89,3093.34 1961.34,3093.35Z" style="fill:rgb(75,61,129);fill-rule:nonzero;"/>
        <path d="M1917.94,3036.24C1902.81,3036.24 1887.37,3033.23 1873.6,3027.26C1913.14,3020.49 1940.71,3003.58 1939.96,2962.77C1944.55,2962.83 1949.14,2962.86 1953.72,2962.86C1967.73,2962.86 1981.69,2962.57 1995.59,2962C1997.87,2988.51 1988.72,3009.27 1968.8,3022.41C1954.76,3031.67 1936.59,3036.24 1917.94,3036.24Z" style="fill:rgb(178,178,212);fill-rule:nonzero;"/>
        <path d="M1953.72,2962.86C1949.14,2962.86 1944.55,2962.83 1939.96,2962.77C1939.9,2959.75 1939.69,2956.6 1939.32,2953.31C1939.32,2953.31 1940.5,2953.34 1942.63,2953.34C1950.65,2953.34 1972.12,2952.91 1993.9,2948.75C1993.89,2949.64 1993.97,2950.55 1994.14,2951.46C1994.81,2955.07 1995.3,2958.58 1995.59,2962C1981.69,2962.57 1967.73,2962.86 1953.72,2962.86ZM2023.6,2960.34C2023.23,2955.76 2022.6,2951.07 2021.71,2946.29C2020.44,2939.55 2014.55,2934.86 2007.91,2934.86C2007.06,2934.86 2006.2,2934.94 2005.34,2935.09C1999.66,2936.16 1995.42,2940.51 1994.23,2945.81L1827.06,2932.7C1825.11,2929.23 1821.71,2926.61 1817.5,2925.8C1816.6,2925.62 1815.7,2925.54 1814.81,2925.54C1810.48,2925.54 1806.44,2927.57 1803.83,2930.88L1768.14,2928.08C1768.1,2927.67 1768.03,2927.26 1767.95,2926.86L1769.24,2926.86C1783.74,2926.86 1797.15,2926.07 1809.53,2924.62C1858.02,2931.4 1906.2,2934.81 1953.78,2934.81C1975.53,2934.81 1997.14,2934.1 2018.62,2932.68C2028.99,2931.99 2037.28,2923.22 2037.5,2912.72L2045.97,2514.5C2046,2513.28 2046.18,2512.11 2046.5,2511L2045.97,2517.8C2045.95,2518.08 2045.94,2518.41 2045.93,2518.69C2045.82,2526.44 2052.02,2532.81 2059.77,2532.92L2059.97,2532.92C2067.14,2532.92 2073.08,2527.52 2073.9,2520.52L2065.54,2913.33C2065.03,2937.17 2046.86,2957.24 2023.6,2960.34ZM1740.72,2925.92L1737.58,2925.68C1738.64,2925.76 1739.68,2925.83 1740.73,2925.9C1740.72,2925.91 1740.72,2925.92 1740.72,2925.92Z" style="fill:rgb(0,0,114);fill-rule:nonzero;"/>
        <path d="M2059.97,2532.92L2059.77,2532.92C2052.02,2532.81 2045.82,2526.44 2045.93,2518.69C2045.94,2518.41 2045.95,2518.08 2045.97,2517.8L2046.5,2511L2067.07,2246.36C2067.28,2243.55 2069.64,2241.41 2072.41,2241.41C2072.55,2241.41 2072.69,2241.41 2072.84,2241.43C2075.67,2241.64 2077.82,2244.05 2077.79,2246.85L2073.99,2519.08C2073.98,2519.57 2073.95,2520.05 2073.9,2520.52C2073.08,2527.52 2067.14,2532.92 2059.97,2532.92Z" style="fill:rgb(0,0,114);fill-rule:nonzero;"/>
        <path d="M1768.14,2928.08L1740.72,2925.92C1740.72,2925.92 1740.72,2925.91 1740.73,2925.9C1750.2,2926.52 1759.27,2926.83 1767.95,2926.86C1768.03,2927.26 1768.1,2927.67 1768.14,2928.08Z" style="fill:rgb(0,0,114);fill-rule:nonzero;"/>
        <path d="M2318.51,2290.76C2312.55,2283.14 2306.68,2276.13 2300.89,2269.69L2274.81,2108.97C2279.43,2108.28 2284.04,2107.52 2288.63,2106.71L2318.51,2290.76Z" style="fill:rgb(0,0,114);fill-rule:nonzero;"/>
        <path d="M1917.88,3064.26C1902.67,3064.26 1887.28,3061.82 1872.84,3056.97C1864.61,3049.29 1856.89,3040.35 1849.9,3030.12C1858.15,3029.47 1866.09,3028.55 1873.6,3027.26C1887.37,3033.23 1902.81,3036.24 1917.94,3036.24C1936.59,3036.24 1954.76,3031.67 1968.8,3022.41C1988.72,3009.27 1997.87,2988.51 1995.59,2962C1995.3,2958.58 1994.81,2955.07 1994.14,2951.46C1993.97,2950.55 1993.89,2949.64 1993.9,2948.75C1997.22,2948.11 2000.56,2947.39 2003.85,2946.57L1994.23,2945.81C1995.42,2940.51 1999.66,2936.16 2005.34,2935.09C2006.2,2934.94 2007.06,2934.86 2007.91,2934.86C2014.55,2934.86 2020.44,2939.55 2021.71,2946.29C2022.6,2951.07 2023.23,2955.76 2023.6,2960.34C2026.55,2996.92 2012.86,3026.94 1984.24,3045.82C1965.56,3058.15 1941.94,3064.26 1917.88,3064.26ZM1827.06,2932.7L1803.83,2930.88C1806.44,2927.57 1810.48,2925.54 1814.81,2925.54C1815.7,2925.54 1816.6,2925.62 1817.5,2925.8C1821.71,2926.61 1825.11,2929.23 1827.06,2932.7Z" style="fill:rgb(0,0,114);fill-rule:nonzero;"/>
        <path d="M2002.69,2126.73C1975.4,2126.73 1948.29,2125.9 1921.41,2124.22L1912.29,2116.28L2066.2,2113.03C2069.06,2112.79 2072.02,2112.5 2074.98,2112.21C2094.83,2111.62 2114.68,2110.6 2134.52,2109.2L2267.27,2099.59C2273.92,2099.1 2280.57,2098.52 2287.17,2097.7L2288.63,2106.71C2284.04,2107.52 2279.43,2108.28 2274.81,2108.97C2261.17,2111.02 2247.37,2112.56 2233.47,2113.56L2100.73,2123.17C2067.85,2125.55 2035.13,2126.73 2002.69,2126.73Z" style="fill:rgb(0,0,114);fill-rule:nonzero;"/>
        <path d="M1737.58,2925.68C1735.64,2925.54 1733.68,2925.38 1731.7,2925.22L1737.58,2925.68Z" style="fill:rgb(0,0,114);fill-rule:nonzero;"/>
        <path d="M2575.98,3268.65L2298.16,3268.65C2468.84,3226.15 2437.6,3109.06 2406.33,3065.73C2392.58,3046.67 2385.53,3030.98 2382.12,3018.75C2379.87,3010.67 2372.68,3005.9 2365.12,3005.9C2361.62,3005.9 2358.05,3006.92 2354.84,3009.1C2304.95,3043.11 2236.67,3052.55 2190.74,3054.72C2190.49,3054.73 2190.23,3054.73 2189.99,3054.73C2176.28,3054.73 2170.38,3036.77 2181.86,3028.76C2326.02,2928.19 2355.68,2785.86 2361.75,2727.79C2364.19,2752.52 2366.47,2776.85 2368.57,2800.56C2368.5,2811.85 2367.74,2823.97 2366.62,2835.66C2365.43,2847.86 2363.73,2860.02 2361.54,2872.09C2359.31,2884.16 2356.38,2896.06 2352.89,2907.8C2349.27,2919.49 2344.78,2930.85 2339.41,2941.82L2339.33,2941.99C2338.14,2944.41 2338.93,2947.38 2341.25,2948.87C2342.15,2949.45 2343.15,2949.72 2344.15,2949.72C2345.91,2949.72 2347.65,2948.85 2348.67,2947.25C2355.67,2936.36 2361.79,2924.9 2367,2913.07C2372.08,2901.2 2376.59,2889.08 2380.36,2876.75C2381.83,2871.91 2383.22,2867.05 2384.53,2862.16L2423.44,2971.47C2435.26,3004.58 2453.67,3034.3 2478.19,3059.79C2495.32,3077.56 2507.08,3097.96 2513.12,3120.41C2524.94,3164.42 2549.16,3201.66 2583.16,3228.1L2588.47,3232.23C2596.92,3238.8 2597.49,3248.24 2595.21,3254.89C2592.92,3261.54 2586.68,3268.65 2575.98,3268.65Z" style="fill:rgb(75,61,129);fill-rule:nonzero;"/>
        <path d="M2344.15,2949.72C2343.15,2949.72 2342.15,2949.45 2341.25,2948.87C2338.93,2947.38 2338.14,2944.41 2339.33,2941.99L2339.41,2941.82C2344.78,2930.85 2349.27,2919.49 2352.89,2907.8C2356.38,2896.06 2359.31,2884.16 2361.54,2872.09C2363.73,2860.02 2365.43,2847.86 2366.62,2835.66C2367.74,2823.97 2368.5,2811.85 2368.57,2800.56C2368.59,2800.79 2368.61,2801.03 2368.63,2801.26C2369.87,2815.55 2372.93,2829.6 2377.72,2843.02L2384.53,2862.16C2383.22,2867.05 2381.83,2871.91 2380.36,2876.75C2376.59,2889.08 2372.08,2901.2 2367,2913.07C2361.79,2924.9 2355.67,2936.36 2348.67,2947.25C2347.65,2948.85 2345.91,2949.72 2344.15,2949.72Z" style="fill:rgb(0,0,114);fill-rule:nonzero;"/>
        <path d="M2575.96,3282.67L2200.6,3282.67C2238.77,3280.28 2271.02,3275.41 2298.16,3268.65L2575.98,3268.65C2586.68,3268.65 2592.92,3261.54 2595.21,3254.89C2597.49,3248.24 2596.92,3238.8 2588.47,3232.23L2583.16,3228.1C2549.16,3201.66 2524.94,3164.42 2513.12,3120.41C2507.08,3097.96 2495.32,3077.56 2478.19,3059.79C2453.67,3034.3 2435.26,3004.58 2423.44,2971.47L2384.53,2862.16L2377.72,2843.02C2372.93,2829.6 2369.87,2815.55 2368.63,2801.26C2368.61,2801.03 2368.59,2800.79 2368.57,2800.56C2366.47,2776.85 2364.19,2752.52 2361.75,2727.79C2363.48,2711.28 2363.29,2701.59 2363.29,2701.59L2326.09,2412.92C2328.7,2416.05 2332.62,2417.98 2336.86,2417.98C2337.45,2417.98 2338.06,2417.94 2338.66,2417.86L2339.81,2425.12C2354.79,2533.26 2370.36,2661.71 2382.61,2800.03C2383.72,2813.09 2386.53,2825.99 2390.9,2838.32L2436.66,2966.75C2447.77,2997.9 2465.38,3026.24 2488.28,3050.06C2502.84,3065.15 2518.71,3087.28 2526.66,3116.78C2537.29,3156.32 2559.41,3191.84 2591.78,3217.02L2597.1,3221.17C2622.9,3241.29 2608.68,3282.67 2575.96,3282.67Z" style="fill:rgb(0,0,114);fill-rule:nonzero;"/>
        <path d="M2336.86,2417.98C2332.62,2417.98 2328.7,2416.05 2326.09,2412.92L2312.06,2304.06C2312.06,2304.06 2316.25,2308.82 2322.51,2315.86L2338.66,2417.86C2338.06,2417.94 2337.45,2417.98 2336.86,2417.98Z" style="fill:rgb(0,0,114);fill-rule:nonzero;"/>
        <path d="M2339.81,2425.12L2338.66,2417.86C2338.71,2417.86 2338.75,2417.85 2338.8,2417.85C2339.14,2420.26 2339.47,2422.69 2339.81,2425.12Z" style="fill:rgb(0,0,114);fill-rule:nonzero;"/>
        <path d="M2338.66,2417.86L2322.51,2315.86C2322.54,2315.89 2322.56,2315.92 2322.58,2315.94L2336.85,2403.96C2337.5,2408.55 2338.15,2413.18 2338.8,2417.85C2338.75,2417.85 2338.71,2417.86 2338.66,2417.86Z" style="fill:rgb(0,0,114);fill-rule:nonzero;"/>
        <path d="M2828.43,2263.68C2734.27,2201.96 2604.95,2128.68 2436.29,2056.68C2452.43,2048.24 2468.06,2038.92 2483.1,2028.75L2552.11,2056.4C2564.53,2080.86 2595.28,2121.84 2662.68,2124.6C2673.11,2146.56 2697.19,2170.25 2746.15,2191.68C2775.86,2204.7 2802.22,2211.27 2824.66,2211.27C2827.35,2211.27 2829.98,2211.17 2832.55,2210.99C2853.15,2209.47 2869.98,2201.86 2882.29,2188.65L2918.95,2203.34C2886.23,2218.16 2855.83,2238.43 2828.43,2263.68Z" style="fill:rgb(160,112,60);fill-rule:nonzero;"/>
        <path d="M2821.7,2270.05C2820.98,2269.59 2820.26,2269.13 2819.53,2268.67C2814.42,2265.45 2808.93,2262.23 2803.05,2262.23C2802.34,2262.23 2801.62,2262.28 2800.9,2262.38L2800.85,2262.38C2707.15,2202.52 2581.5,2133.09 2419.83,2064.9C2425.37,2062.26 2430.86,2059.52 2436.29,2056.68C2604.95,2128.68 2734.27,2201.96 2828.43,2263.68C2826.17,2265.76 2823.92,2267.89 2821.7,2270.05ZM2918.95,2203.34L2882.29,2188.65C2884.76,2186 2887.05,2183.12 2889.15,2180.02L2936.32,2196.07C2930.46,2198.33 2924.67,2200.75 2918.95,2203.34ZM2552.11,2056.4L2483.1,2028.75C2485.7,2026.99 2488.29,2025.21 2490.86,2023.4C2492.86,2021.99 2494.84,2020.57 2496.81,2019.13L2544.81,2038.36C2544.81,2038.36 2546.75,2045.84 2552.11,2056.4Z" style="fill:rgb(0,0,114);fill-rule:nonzero;"/>
        <path d="M2419.83,2064.9C2415.07,2062.89 2410.27,2060.88 2405.46,2058.88L2490.9,2016.77L2496.81,2019.13C2494.84,2020.57 2492.86,2021.99 2490.86,2023.4C2488.29,2025.21 2485.7,2026.99 2483.1,2028.75C2468.06,2038.92 2452.43,2048.24 2436.29,2056.68C2430.86,2059.52 2425.37,2062.26 2419.83,2064.9Z" style="fill:rgb(0,0,114);fill-rule:nonzero;"/>
        <path d="M2833.7,2275.12C2829.98,2275.12 2825.98,2272.75 2821.7,2270.05C2823.92,2267.89 2826.17,2265.76 2828.43,2263.68C2855.83,2238.43 2886.23,2218.16 2918.95,2203.34C2924.67,2200.75 2930.46,2198.33 2936.32,2196.07L2939.76,2197.25C2939.76,2197.25 2883.05,2231.78 2839.54,2272.66C2837.68,2274.41 2835.73,2275.12 2833.7,2275.12Z" style="fill:rgb(0,0,114);fill-rule:nonzero;"/>
        <path d="M2824.66,2211.27C2802.22,2211.27 2775.86,2204.7 2746.15,2191.68C2697.19,2170.25 2673.11,2146.56 2662.68,2124.6C2665.04,2124.69 2667.45,2124.74 2669.91,2124.74C2674.97,2124.74 2680.21,2124.53 2685.66,2124.09C2685.66,2124.09 2729.83,2191.34 2807.71,2191.34C2827.99,2191.34 2850.56,2186.78 2875.24,2175.28L2889.15,2180.02C2887.05,2183.12 2884.76,2186 2882.29,2188.65C2869.98,2201.86 2853.15,2209.47 2832.55,2210.99C2829.98,2211.17 2827.35,2211.27 2824.66,2211.27Z" style="fill:rgb(0,0,114);fill-rule:nonzero;"/>
        <path d="M3034.88,2413.33C3033.99,2413.33 3033.09,2413.29 3032.2,2413.22C3031.14,2404.36 3035.31,2391.56 3043.41,2374.84C3043.66,2374.92 3043.9,2375 3044.15,2375.06C3045.31,2375.37 3046.48,2375.52 3047.62,2375.52C3053.55,2375.52 3058.98,2371.56 3060.58,2365.56C3067.5,2339.64 3083.82,2321.6 3105.35,2316.05C3112.53,2314.21 3116.84,2306.89 3115,2299.72C3114.74,2298.73 3114.39,2297.8 3113.94,2296.93C3117.44,2296.36 3120.86,2296.12 3124.12,2296.12C3129.06,2296.12 3133.66,2296.67 3137.73,2297.45C3142.49,2305.04 3143.91,2314.55 3140.85,2323.56C3130.79,2353.21 3105.81,2392.61 3043.89,2411.96C3040.95,2412.88 3037.91,2413.33 3034.88,2413.33Z" style="fill:rgb(160,112,60);fill-rule:nonzero;"/>
        <path d="M3043.84,2426.43C3036.7,2424.22 3033,2419.82 3032.2,2413.22C3033.09,2413.29 3033.99,2413.33 3034.88,2413.33C3037.91,2413.33 3040.95,2412.88 3043.89,2411.96C3105.81,2392.61 3130.79,2353.21 3140.85,2323.56C3143.91,2314.55 3142.49,2305.04 3137.73,2297.45C3147.64,2299.36 3154.39,2302.69 3155.1,2303.04L3155.15,2303.09L3155.34,2303.91C3157.14,2311.67 3156.85,2320.02 3154.13,2328.07C3142.97,2360.92 3115.51,2404.25 3048.07,2425.36C3046.66,2425.79 3045.25,2426.18 3043.84,2426.43Z" style="fill:rgb(0,0,114);fill-rule:nonzero;"/>
        <path d="M3047.62,2375.52C3046.48,2375.52 3045.31,2375.37 3044.15,2375.06C3043.9,2375 3043.66,2374.92 3043.41,2374.84C3049.26,2362.79 3057.14,2348.7 3066.6,2332.59C3080.62,2308.67 3098.17,2299.48 3113.94,2296.93C3114.39,2297.8 3114.74,2298.73 3115,2299.72C3116.84,2306.89 3112.53,2314.21 3105.35,2316.05C3083.82,2321.6 3067.5,2339.64 3060.58,2365.56C3058.98,2371.56 3053.55,2375.52 3047.62,2375.52Z" style="fill:rgb(0,0,114);fill-rule:nonzero;"/>
        <path d="M2909.37,2329.54L2885.25,2326.93C2886.07,2319.4 2887.5,2312.22 2889.45,2305.39C2896.83,2310.66 2903.92,2315.81 2910.7,2320.81C2910.14,2323.66 2909.69,2326.57 2909.37,2329.54ZM2983.51,2229.2L2956.79,2218.49C2965.41,2215.54 2974.17,2212.97 2983.07,2210.81L2990.12,2225.58C2989.98,2225.65 2987.51,2226.86 2983.51,2229.2Z" style="fill:rgb(0,0,114);fill-rule:nonzero;"/>
        <path d="M2953.78,2219.54C2967.68,2209.51 2978.45,2204.27 2979.67,2203.69L2983.07,2210.81C2974.17,2212.97 2965.41,2215.54 2956.79,2218.49C2955.79,2218.84 2954.78,2219.19 2953.78,2219.54Z" style="fill:rgb(0,0,114);fill-rule:nonzero;"/>
        <path d="M837.417,3276.48C883.299,3267.75 929.18,3265.43 975.061,3264.5C1020.94,3263.29 1066.82,3263.93 1112.7,3264.59C1158.58,3265.11 1204.46,3265.24 1250.34,3265.16L2764.41,3265.16L2833.23,3265.14C2856.17,3265.15 2879.11,3264.37 2902.05,3264.02C2924.99,3263.65 2947.93,3264.22 2970.87,3265.64C2982.34,3266.45 2993.81,3267.58 3005.28,3269.36C3016.75,3271.1 3028.22,3273.16 3039.69,3276.48C3042.82,3277.39 3044.62,3280.65 3043.71,3283.78C3043.13,3285.78 3041.55,3287.25 3039.69,3287.8C3028.22,3291.12 3016.75,3293.19 3005.28,3294.92C2993.81,3296.71 2982.34,3297.83 2970.87,3298.64C2947.93,3300.07 2924.99,3300.63 2902.05,3300.27C2879.11,3299.91 2856.17,3299.13 2833.23,3299.14L2764.41,3299.12L1250.34,3299.12C1204.46,3299.04 1158.58,3299.17 1112.7,3299.69C1066.82,3300.35 1020.94,3301 975.061,3299.78C929.18,3298.85 883.299,3296.53 837.417,3287.8C834.292,3287.21 832.238,3284.19 832.834,3281.06C833.289,3278.68 835.168,3276.91 837.417,3276.48Z" style="fill:rgb(0,0,114);fill-rule:nonzero;"/>
        <path d="M2220.03,2004.86C2216.61,2004.86 2213.2,2004.81 2209.82,2004.71L2204.16,1962.26C2215.77,1963.46 2227.92,1964.11 2240.33,1964.11C2249.84,1964.11 2259.5,1963.73 2269.21,1962.93L2268.75,2001.3C2252.54,2003.73 2236.09,2004.86 2220.03,2004.86ZM2184.41,2002.99C2174.05,2001.88 2164.1,2000.31 2154.76,1998.33C2125.64,1992.13 2100.68,1973.42 2086.28,1947L2065.94,1909.59C2063.63,1905.36 2059.31,1902.6 2054.49,1902.3C1973.55,1897.25 1894.09,1890.38 1812.21,1862.53L1796.69,1836.23L1792.8,1827.71C1777.7,1793.13 1771.82,1754.72 1775.81,1716.66C1787.06,1610.23 1804.76,1517.99 1829.92,1434.67C1844.94,1384.95 1869.18,1338.63 1901.96,1297C1975.76,1203.2 2048.18,1130.15 2123.22,1073.83C2222.35,1079.35 2312.34,1125.61 2385.32,1193.03C2355.62,1185.77 2326.68,1182.33 2298.56,1182.33C2041.39,1182.33 1853.44,1470.07 1797.76,1757.92C1796.42,1764.83 1797.29,1771.99 1800.15,1778.42L1800.2,1778.53L1803.84,1786.58L1804.47,1787.94L1804.52,1788.04L1805.29,1789.3L1823,1819.33C1898.33,1845.7 1971.72,1854.45 2048.44,1859.83C2064.29,1860.94 2078.5,1870.04 2086.08,1884L2094.18,1898.91C2110.44,1928.75 2138.77,1950.2 2172.06,1957.28C2176.83,1958.29 2181.76,1959.2 2186.84,1960.01L2184.41,2002.99ZM2295.12,1996.09L2288.01,1960.85C2308.1,1958.04 2328.01,1953.32 2346.67,1946.31L2348.93,1975.23C2332.6,1984.47 2314.29,1991.32 2295.12,1996.09ZM2370.97,1960.19L2363.72,1939.08C2380.34,1931.16 2395.58,1921.14 2408.56,1908.73C2400.89,1928.51 2388.59,1945.5 2371.73,1959.56C2371.48,1959.77 2371.22,1959.98 2370.97,1960.19Z" style="fill:rgb(178,178,212);fill-rule:nonzero;"/>
        <path d="M1796.69,1836.23L1796.32,1835.59C1793.7,1831.15 1789.03,1828.68 1784.23,1828.68C1782.3,1828.68 1780.35,1829.08 1778.51,1829.91C1765.53,1798.85 1759.51,1765.18 1760.74,1731.25C1760.94,1725.89 1761.32,1720.53 1761.88,1715.16C1763.32,1701.54 1764.88,1687.99 1766.57,1674.51C1772.06,1630.88 1778.93,1588.07 1787.49,1546.27C1795.57,1506.78 1805.17,1468.18 1816.51,1430.64C1817.16,1428.5 1817.82,1426.37 1818.5,1424.25C1818.85,1423.18 1819.2,1422.1 1819.56,1421.03L1819.56,1420.99C1821.35,1415.52 1823.25,1410.11 1825.27,1404.73C1825.8,1403.32 1826.34,1401.92 1826.88,1400.5C1826.98,1400.24 1827.08,1399.99 1827.17,1399.73C1828.9,1395.28 1830.71,1390.86 1832.58,1386.48C1832.7,1386.2 1832.83,1385.93 1832.95,1385.66L1835.71,1379.4C1841.34,1366.85 1847.57,1354.59 1854.37,1342.65C1865.17,1323.69 1877.4,1305.53 1890.95,1288.33C1932.31,1235.72 1975.54,1186.78 2021.25,1142.71C2049.09,1115.88 2077.86,1090.88 2107.71,1068.01C2110.18,1071.28 2114.05,1073.44 2118.41,1073.6C2120.02,1073.67 2121.62,1073.74 2123.22,1073.83C2048.18,1130.15 1975.76,1203.2 1901.96,1297C1869.18,1338.63 1844.94,1384.95 1829.92,1434.67C1804.76,1517.99 1787.06,1610.23 1775.81,1716.66C1771.82,1754.72 1777.7,1793.13 1792.8,1827.71L1796.69,1836.23Z" style="fill:rgb(0,0,114);fill-rule:nonzero;"/>
        <path d="M2220.13,2018.89C2217.29,2018.89 2214.46,2018.85 2211.65,2018.79C2211.63,2018.4 2211.6,2018 2211.55,2017.61L2209.82,2004.71C2213.2,2004.81 2216.61,2004.86 2220.03,2004.86C2236.09,2004.86 2252.54,2003.73 2268.75,2001.3L2268.69,2006.11C2268.69,2007.06 2268.77,2008.1 2268.97,2009.07C2269.43,2011.33 2270.4,2013.36 2271.75,2015.05C2261.19,2016.66 2250.57,2017.74 2240.03,2018.33C2239.95,2018.34 2239.88,2018.34 2239.8,2018.34C2239.79,2018.34 2239.79,2018.34 2239.78,2018.35C2233.18,2018.71 2226.62,2018.89 2220.13,2018.89ZM2183.62,2017.01C2172.45,2015.84 2161.77,2014.17 2151.84,2012.06C2118.56,2004.97 2090.22,1983.53 2073.97,1953.69L2053.64,1916.28C1994.99,1912.64 1938.57,1907.96 1882.09,1896.09C1855.74,1890.54 1829.37,1883.43 1802.77,1874.11L1785.06,1844.08L1784.64,1843.4L1784.3,1842.82L1784.25,1842.72L1783.62,1841.36L1782.41,1838.73L1779.96,1833.31C1779.47,1832.18 1778.99,1831.05 1778.51,1829.91C1780.35,1829.08 1782.3,1828.68 1784.23,1828.68C1789.03,1828.68 1793.7,1831.15 1796.32,1835.59L1796.69,1836.23L1812.21,1862.53C1894.09,1890.38 1973.55,1897.25 2054.49,1902.3C2059.31,1902.6 2063.63,1905.36 2065.94,1909.59L2086.28,1947C2100.68,1973.42 2125.64,1992.13 2154.76,1998.33C2164.1,2000.31 2174.05,2001.88 2184.41,2002.99L2183.62,2017.01ZM2296.32,2010.25C2296.95,2008.13 2297.08,2005.82 2296.61,2003.49L2295.12,1996.09C2314.29,1991.32 2332.6,1984.47 2348.93,1975.23L2349.58,1983.55C2349.67,1984.69 2349.91,1985.91 2350.3,1987.04C2350.64,1988.01 2351.07,1988.93 2351.58,1989.78C2334.53,1998.88 2315.76,2005.59 2296.32,2010.25ZM2375.8,1974.25L2370.97,1960.19C2371.22,1959.98 2371.48,1959.77 2371.73,1959.56C2388.59,1945.5 2400.89,1928.51 2408.56,1908.73C2416.62,1901.02 2423.8,1892.38 2429.9,1882.75C2423.51,1923.29 2403.37,1953.07 2375.8,1974.25ZM2393.31,1195.07C2390.65,1194.36 2387.97,1193.67 2385.32,1193.03C2312.34,1125.61 2222.35,1079.35 2123.22,1073.83C2121.62,1073.74 2120.02,1073.67 2118.41,1073.6C2114.05,1073.44 2110.18,1071.28 2107.71,1068.01C2111.42,1065.18 2115.14,1062.37 2118.88,1059.6L2118.93,1059.6C2208.16,1063.34 2289.96,1098.32 2359.3,1151.84C2388.27,1175.85 2393.31,1195.07 2393.31,1195.07Z" style="fill:rgb(0,0,114);fill-rule:nonzero;"/>
        <path d="M2211.65,2018.79C2202.06,2018.56 2192.68,2017.95 2183.62,2017.01L2184.41,2002.99L2186.84,1960.01C2192.45,1960.9 2198.24,1961.65 2204.16,1962.26L2209.82,2004.71L2211.55,2017.61C2211.6,2018 2211.63,2018.4 2211.65,2018.79Z" style="fill:rgb(0,0,114);fill-rule:nonzero;"/>
        <path d="M2271.75,2015.05C2270.4,2013.36 2269.43,2011.33 2268.97,2009.07C2268.77,2008.1 2268.69,2007.06 2268.69,2006.11L2268.75,2001.3L2269.21,1962.93C2275.47,1962.42 2281.75,1961.73 2288.01,1960.85L2295.12,1996.09L2296.61,2003.49C2297.08,2005.82 2296.95,2008.13 2296.32,2010.25C2288.23,2012.2 2280,2013.79 2271.75,2015.05Z" style="fill:rgb(0,0,114);fill-rule:nonzero;"/>
        <path d="M2351.58,1989.78C2351.07,1988.93 2350.64,1988.01 2350.3,1987.04C2349.91,1985.91 2349.67,1984.69 2349.58,1983.55L2348.93,1975.23L2346.67,1946.31C2352.48,1944.12 2358.18,1941.72 2363.72,1939.08L2370.97,1960.19L2375.8,1974.25C2368.24,1980.06 2360.13,1985.22 2351.58,1989.78Z" style="fill:rgb(0,0,114);fill-rule:nonzero;"/>
        <path d="M2220.11,2018.89C2217.28,2018.89 2214.45,2018.85 2211.65,2018.79C2214.46,2018.85 2217.29,2018.89 2220.13,2018.89C2226.62,2018.89 2233.18,2018.71 2239.78,2018.35C2233.18,2018.71 2226.61,2018.89 2220.11,2018.89ZM2183.62,2017.01C2172.44,2015.85 2161.76,2014.17 2151.83,2012.06C2118.54,2004.97 2090.2,1983.53 2073.95,1953.69L2053.62,1916.28C1994.97,1912.64 1938.56,1907.96 1882.09,1896.09C1938.57,1907.96 1994.99,1912.64 2053.64,1916.28L2073.97,1953.69C2090.22,1983.53 2118.56,2004.97 2151.84,2012.06C2161.77,2014.17 2172.45,2015.84 2183.62,2017.01Z" style="fill:rgb(0,0,114);fill-rule:nonzero;"/>
        <path d="M2211.65,2018.79C2202.06,2018.56 2192.68,2017.96 2183.62,2017.01C2192.68,2017.95 2202.06,2018.56 2211.65,2018.79Z" style="fill:rgb(0,0,114);fill-rule:nonzero;"/>
        <path d="M2239.8,2018.34C2239.88,2018.34 2239.95,2018.34 2240.03,2018.33C2239.96,2018.34 2239.88,2018.34 2239.8,2018.34ZM1784.64,1843.4L1784.28,1842.82L1784.23,1842.72L1783.6,1841.36L1782.41,1838.73L1783.62,1841.36L1784.25,1842.72L1784.3,1842.82L1784.64,1843.4Z" style="fill:rgb(0,0,114);fill-rule:nonzero;"/>
        <path d="M1760.74,1731.25C1760.93,1725.89 1761.31,1720.53 1761.87,1715.16C1763.31,1701.54 1764.87,1687.99 1766.57,1674.51C1764.88,1687.99 1763.32,1701.54 1761.88,1715.16C1761.32,1720.53 1760.94,1725.89 1760.74,1731.25ZM1787.49,1546.27C1795.57,1506.78 1805.15,1468.18 1816.5,1430.64C1817.14,1428.51 1817.81,1426.38 1818.5,1424.25C1817.82,1426.37 1817.16,1428.5 1816.51,1430.64C1805.17,1468.18 1795.57,1506.78 1787.49,1546.27ZM1819.56,1420.99L1819.56,1420.93C1820.62,1417.73 1821.69,1414.58 1822.81,1411.42C1823.61,1409.17 1824.43,1406.95 1825.27,1404.73C1823.25,1410.11 1821.35,1415.52 1819.56,1420.99ZM1827.17,1399.73C1828.01,1397.51 1828.88,1395.3 1829.79,1393.13C1830.7,1390.88 1831.61,1388.68 1832.58,1386.48C1830.71,1390.86 1828.9,1395.28 1827.17,1399.73ZM1854.37,1342.65C1865.16,1323.69 1877.39,1305.53 1890.93,1288.33C1932.32,1235.74 1975.53,1186.75 2021.25,1142.71C1975.54,1186.78 1932.31,1235.72 1890.95,1288.33C1877.4,1305.53 1865.17,1323.69 1854.37,1342.65Z" style="fill:rgb(0,0,114);fill-rule:nonzero;"/>
        <path d="M2870.69,1311.28C2870.69,1306.54 2858.63,1302.44 2841.05,1300.45C2834.05,1299.65 2828.52,1294.11 2827.72,1287.12C2825.73,1269.54 2821.62,1257.48 2816.88,1257.48C2812.15,1257.48 2808.04,1269.54 2806.05,1287.12C2805.25,1294.11 2799.71,1299.65 2792.72,1300.45C2775.14,1302.44 2763.08,1306.54 2763.08,1311.28C2763.08,1316.02 2775.14,1320.12 2792.72,1322.12C2799.71,1322.91 2805.25,1328.45 2806.05,1335.45C2808.04,1353.03 2812.15,1365.08 2816.88,1365.08C2821.62,1365.08 2825.73,1353.03 2827.72,1335.45C2828.52,1328.45 2834.05,1322.91 2841.05,1322.12C2858.63,1320.13 2870.69,1316.02 2870.69,1311.28Z" style="fill:white;fill-rule:nonzero;"/>
        <path d="M3428.49,2016.77C3428.49,2012.03 3416.43,2007.92 3398.85,2005.93C3391.86,2005.14 3386.32,1999.6 3385.52,1992.6C3383.53,1975.02 3379.43,1962.96 3374.69,1962.96C3369.95,1962.96 3365.85,1975.02 3363.85,1992.6C3363.06,1999.6 3357.52,2005.14 3350.52,2005.93C3332.94,2007.92 3320.89,2012.03 3320.89,2016.77C3320.89,2021.5 3332.94,2025.61 3350.52,2027.6C3357.52,2028.4 3363.06,2033.94 3363.85,2040.93C3365.85,2058.51 3369.95,2070.57 3374.69,2070.57C3379.43,2070.57 3383.53,2058.51 3385.52,2040.93C3386.32,2033.94 3391.86,2028.4 3398.85,2027.6C3416.43,2025.61 3428.49,2021.5 3428.49,2016.77Z" style="fill:white;fill-rule:nonzero;"/>
        <path d="M732.388,2446.77C732.388,2442.03 720.329,2437.92 702.754,2435.93C695.757,2435.14 690.218,2429.6 689.423,2422.6C687.428,2405.02 683.326,2392.96 678.587,2392.96C673.848,2392.96 669.746,2405.02 667.751,2422.6C666.957,2429.6 661.417,2435.14 654.42,2435.93C636.845,2437.92 624.786,2442.03 624.786,2446.77C624.786,2451.5 636.845,2455.61 654.42,2457.6C661.417,2458.4 666.957,2463.94 667.751,2470.93C669.746,2488.51 673.848,2500.57 678.587,2500.57C683.326,2500.57 687.428,2488.51 689.423,2470.93C690.218,2463.94 695.757,2458.4 702.754,2457.6C720.329,2455.61 732.388,2451.5 732.388,2446.77Z" style="fill:white;fill-rule:nonzero;"/>
        <path d="M1303.77,2178.84C1303.77,2174.11 1291.71,2170 1274.14,2168.01C1267.14,2167.21 1261.6,2161.67 1260.81,2154.68C1258.81,2137.1 1254.71,2125.04 1249.97,2125.04C1245.23,2125.04 1241.13,2137.1 1239.14,2154.68C1238.34,2161.68 1232.8,2167.21 1225.81,2168.01C1208.23,2170 1196.17,2174.11 1196.17,2178.84C1196.17,2183.58 1208.23,2187.69 1225.81,2189.68C1232.8,2190.48 1238.34,2196.01 1239.14,2203.01C1241.13,2220.59 1245.23,2232.65 1249.97,2232.65C1254.71,2232.65 1258.81,2220.59 1260.81,2203.01C1261.6,2196.01 1267.14,2190.48 1274.14,2189.68C1291.71,2187.69 1303.77,2183.58 1303.77,2178.84Z" style="fill:white;fill-rule:nonzero;"/>
        <path d="M2880.57,1096.04C2880.57,1093.54 2874.23,1091.39 2864.98,1090.34C2861.3,1089.92 2858.39,1087.01 2857.97,1083.33C2856.92,1074.08 2854.76,1067.74 2852.27,1067.74C2849.78,1067.74 2847.62,1074.08 2846.57,1083.33C2846.15,1087.01 2843.24,1089.92 2839.56,1090.34C2830.32,1091.39 2823.97,1093.54 2823.97,1096.04C2823.97,1098.53 2830.32,1100.69 2839.56,1101.74C2843.24,1102.15 2846.15,1105.07 2846.57,1108.75C2847.62,1117.99 2849.78,1124.33 2852.27,1124.33C2854.76,1124.33 2856.92,1117.99 2857.97,1108.75C2858.39,1105.07 2861.3,1102.15 2864.98,1101.74C2874.23,1100.69 2880.57,1098.53 2880.57,1096.04Z" style="fill:white;fill-rule:nonzero;"/>
        <path d="M597.193,2633.91C597.193,2631.42 590.852,2629.26 581.607,2628.21C577.927,2627.79 575.014,2624.88 574.596,2621.2C573.547,2611.95 571.389,2605.61 568.896,2605.61C566.404,2605.61 564.246,2611.95 563.197,2621.2C562.779,2624.88 559.866,2627.79 556.186,2628.21C546.941,2629.26 540.599,2631.42 540.599,2633.91C540.599,2636.4 546.941,2638.56 556.186,2639.61C559.866,2640.03 562.779,2642.94 563.197,2646.62C564.246,2655.86 566.404,2662.21 568.896,2662.21C571.389,2662.21 573.547,2655.86 574.596,2646.62C575.014,2642.94 577.927,2640.03 581.607,2639.61C590.852,2638.56 597.193,2636.4 597.193,2633.91Z" style="fill:white;fill-rule:nonzero;"/>
        <path d="M947.017,793.297C947.017,790.805 940.674,788.647 931.43,787.598C927.75,787.18 924.836,784.267 924.419,780.586C923.369,771.343 921.212,765 918.719,765C916.227,765 914.069,771.343 913.02,780.586C912.602,784.267 909.688,787.18 906.008,787.598C896.765,788.647 890.422,790.805 890.422,793.297C890.422,795.79 896.765,797.947 906.008,798.997C909.688,799.415 912.602,802.328 913.02,806.008C914.069,815.252 916.227,821.595 918.719,821.595C921.212,821.595 923.369,815.252 924.419,806.008C924.836,802.328 927.75,799.415 931.43,798.997C940.674,797.947 947.017,795.79 947.017,793.297Z" style="fill:white;fill-rule:nonzero;"/>
        <path d="M1240.24,1910.21C1240.24,1907.72 1233.9,1905.56 1224.66,1904.51C1220.98,1904.09 1218.06,1901.18 1217.65,1897.5C1216.6,1888.26 1214.44,1881.91 1211.95,1881.91C1209.46,1881.91 1207.3,1888.26 1206.25,1897.5C1205.83,1901.18 1202.92,1904.09 1199.24,1904.51C1189.99,1905.56 1183.65,1907.72 1183.65,1910.21C1183.65,1912.7 1189.99,1914.86 1199.24,1915.91C1202.92,1916.33 1205.83,1919.24 1206.25,1922.92C1207.3,1932.17 1209.46,1938.51 1211.95,1938.51C1214.44,1938.51 1216.6,1932.17 1217.65,1922.92C1218.06,1919.24 1220.98,1916.33 1224.66,1915.91C1233.9,1914.86 1240.24,1912.7 1240.24,1910.21Z" style="fill:white;fill-rule:nonzero;"/>
    </g>
</svg>
