<?xml version="1.0" standalone="no"?>
<!DOCTYPE svg PUBLIC "-//W3C//DTD SVG 20010904//EN"
 "http://www.w3.org/TR/2001/REC-SVG-20010904/DTD/svg10.dtd">
<svg version="1.0" xmlns="http://www.w3.org/2000/svg"
 width="456.000000pt" height="580.000000pt" viewBox="0 0 456.000000 580.000000"
 preserveAspectRatio="xMidYMid meet">

<g transform="translate(0.000000,580.000000) scale(0.100000,-0.100000)"
fill="#000000" stroke="none">
<path d="M2485 5794 c-193 -13 -431 -62 -625 -129 -139 -48 -400 -178 -525
-261 -272 -181 -498 -393 -725 -678 -50 -63 -70 -96 -70 -117 0 -49 36 -37
161 53 186 133 272 186 412 253 645 310 1340 296 2022 -40 234 -115 623 -376
672 -451 15 -23 13 -35 -23 -192 -56 -246 -57 -225 16 -307 87 -98 134 -170
206 -314 44 -88 63 -118 67 -105 3 10 114 489 247 1063 273 1182 258 1069 147
1091 -34 6 -115 25 -180 41 -126 32 -154 31 -162 -4 -3 -12 -19 -78 -35 -146
-16 -68 -31 -126 -34 -129 -3 -3 -77 29 -163 70 -310 149 -611 240 -934 282
-121 16 -374 26 -474 20z"/>
<path d="M2718 4290 c-303 -48 -569 -212 -791 -487 -81 -101 -143 -205 -266
-451 -61 -122 -140 -271 -176 -332 -274 -460 -637 -725 -1267 -924 -125 -39
-150 -51 -176 -80 -55 -63 -50 -163 11 -211 18 -14 68 -41 112 -60 231 -100
315 -217 400 -555 26 -102 59 -216 72 -255 89 -249 236 -387 458 -431 62 -12
133 -14 310 -12 226 3 231 3 275 -21 24 -13 106 -83 180 -155 156 -151 247
-211 397 -262 250 -85 487 -62 756 72 230 115 442 324 612 603 338 555 519
1228 519 1931 0 261 -9 361 -51 549 -97 441 -358 801 -708 977 -157 78 -269
105 -460 109 -82 2 -176 0 -207 -5z m140 -1116 c142 -59 176 -241 65 -346 -65
-62 -148 -73 -232 -32 -156 78 -155 291 2 369 58 29 111 32 165 9z m595 3
c147 -62 184 -242 70 -349 -62 -59 -145 -73 -223 -37 -57 26 -77 44 -103 94
-31 62 -28 142 9 202 52 83 164 124 247 90z"/>
</g>
</svg>
